<?xml version="1.0" encoding="utf-8"?>
<!-- Generator: Adobe Illustrator 25.2.1, SVG Export Plug-In . SVG Version: 6.00 Build 0)  -->
<svg version="1.1" id="Capa_1" xmlns="http://www.w3.org/2000/svg" xmlns:xlink="http://www.w3.org/1999/xlink" x="0px" y="0px"
	 viewBox="0 0 512 512" style="enable-background:new 0 0 512 512;" xml:space="preserve">
<style type="text/css">
	.st0{fill-opacity:0.65;}
	.st1{fill:none;stroke:#FFFFFF;stroke-width:11;stroke-miterlimit:10;}
	.st2{fill:#FFFFFF;}
</style>
<circle class="st0" cx="256" cy="256" r="249.9"/>
<circle class="st1" cx="256" cy="256" r="249.9"/>
<path class="st2" d="M289.5,99.7c-0.4-0.1-0.8-0.2-1.1-0.4c-5-3.2-9.8-6.7-14.9-9.5c-6.6-3.7-11.8-8.8-16.8-14.3
	c-2.5-2.8-5.1-5.6-7.5-8.5c-2.7-3.3-4.5-7.1-5.9-11.1c-0.5-1.5-1.1-2.9-1.7-4.3c-0.2-0.4-0.2-0.9-0.2-1.4c-0.1-3.6,0-7.2,1.6-10.6
	c1.3-2.6,3.4-4.5,5.4-6.5c3.4-3.3,7.8-4.3,12.1-5.8c7.1-2.6,14.5-2.5,21.9-2.8c7.9-0.3,15.8,0.5,23.7,1.2c9.8,0.9,19.2,3.6,28.2,7.3
	c5.6,2.3,11.1,4.8,16.8,6.9c10.1,3.6,19.1,9.3,28.1,14.8c3.5,2.1,7.2,4,10.4,6.5c7,5.6,14.4,10.8,20.9,17c6,5.7,12.2,11.1,17.6,17.3
	c5.6,6.4,11.1,12.9,16.6,19.4c8.3,9.8,14.8,20.8,20.7,32.1c7.3,14,13.9,28.4,17.8,43.8c3.1,12.2,5.9,24.5,7.5,37
	c0.7,5.6,1.1,11.3,1.3,17c0.2,6.1,0.2,12.1,0,18.2c-0.2,7.2-0.6,14.4-1.3,21.5c-1.5,15.7-5,31-10.2,46c-2.3,6.6-4.8,13.1-7.7,19.4
	c-1.8,3.9-3.7,7.6-5.7,11.4c-2.8,5.4-5.8,10.7-8.7,16c-0.4,0.8-1,1.5-1.6,2.2c-0.2,0.2-0.6,0.4-0.9,0.4c-0.2-0.1-0.4-0.5-0.4-0.8
	c-0.1-2.2-0.1-4.4-0.1-6.6c-0.1-3.8-0.5-7.6-2.2-10.9c-1.5-2.9-3.7-5.5-6.9-6.9c-1.7-0.8-3.4-1.7-5.4-1.6c-0.9,0-1.1-0.6-0.8-1.3
	c0.3-0.9,0.7-1.8,1.1-2.6c2.1-4.5,4.4-9,6.2-13.6c1.6-4.2,2.7-8.5,4-12.8c1.5-4.9,3-9.9,4.2-14.9c0.9-3.8,1.3-7.8,1.8-11.7
	c0.7-6.6,1.4-13.3,2-19.9c0.2-2,0.1-4,0.2-6c0.1-2.8,0.2-5.6,0.3-8.4c0.1-4,0.4-7.9,0.1-11.9c-0.6-8.9-1.6-17.8-3.2-26.6
	c-0.9-4.7-1.3-9.6-2.5-14.2c-1.8-6.9-4.1-13.7-6.3-20.4c-1-3.1-2.2-6.1-3.3-9.1c-0.8-2-1.7-3.8-2.6-5.7c-2-4.3-4-8.6-6.1-12.8
	c-3.6-7.4-8-14.3-13.6-20.5c-5.9-6.6-11.5-13.5-17.1-20.4c-4.4-5.4-9.3-10.3-14.7-14.6c-7.8-6.3-15.8-12.6-23.9-18.5
	c-3.7-2.7-7.8-4.8-12-6.8c-10.9-5.2-21.7-10.8-33.2-15c-3.1-1.2-6.2-2.7-9.3-3.9c-6-2.2-12.2-3.8-18.6-4.6
	c-6.9-0.9-13.8-0.9-20.8-0.4c-2.1,0.1-4.4,0.8-6.3,1.7c-2.3,1.1-3,3.6-3.8,5.9c-0.5,1.5-0.5,3.2,0.2,4.7c1.1,2.5,2.1,5,3.6,7.2
	c4.6,6.8,9.9,12.9,16.2,18.2c1.8,1.5,3.7,2.8,5.5,4.2c0.5,0.4,0.9,1.1,1.3,1.7C289.6,99.5,289.5,99.6,289.5,99.7L289.5,99.7z"/>
<path class="st2" d="M239.1,54.9c-4.6,0.3-9.1,0.4-13.5,0.9s-8.8,1.4-13.2,2.2c-8.6,1.4-16.9,4.3-25.2,6.8
	c-11.7,3.5-23,8.1-33.5,14.6c-5.8,3.6-11.7,7.3-17.3,11.3c-5,3.6-9.7,7.5-14.6,11.4c-1.3,1-2.4,2.2-3.6,3.4
	c-2.5,2.4-5.2,4.7-7.6,7.4c-4.8,5.4-9.4,11.1-14.1,16.6c-1.9,2.2-3.8,4.5-5.8,6.6c-5.5,6-9.6,13-13.9,19.8
	c-5.6,8.8-9.9,18.2-13.7,27.8c-3.7,9.4-6.8,18.9-8.9,28.8c-1.3,6.4-2.5,12.8-2.8,19.4c-0.2,5.1-0.9,10.2-1.1,15.3
	c-0.3,7.9,0.2,15.8,1.8,23.6c0.4,1.8,0.5,3.7,0.7,5.5c0.8,10.8,2.9,21.3,5.2,31.8c1.2,5.6,3.1,10.9,5.5,16.1c0.5,1,0.9,2.1,1.2,3.1
	c0.8,2.4,1.8,4.7,3.6,6.7c0.5,0.5,0.8,1.1,1.1,1.7c1.2,2.7,3.3,4.6,5.8,5.8c1.9,0.9,4.1,1.4,6.2,0.1c2.8-1.7,4.8-3.9,6.5-6.7
	c4.1-6.9,6.4-14.5,8.1-22.2c0.3-1.2,0.3-2.4,0.5-3.5c0-0.3,0.3-0.5,0.5-0.7c0.2,0.2,0.5,0.5,0.5,0.7c0.2,4.7,0.5,9.4-0.4,14.1
	c-0.8,4.3-1.3,8.6-2.1,12.9c-1,6-2.9,11.8-4.9,17.6c-1.1,3.1-2.1,6.2-4.1,8.8c-5.2,7.1-12,11-21.1,10.4c-3.2-0.2-5.8-1.5-8.3-3.2
	c-7.2-5-13-11.2-17-18.9c-2.1-4-3.5-8.4-5.3-12.6c-0.6-1.4-0.9-2.8-1.5-4.2c-2.2-5-3.7-10.3-4.8-15.6c-1.5-7-3.3-14-4.5-21.1
	c-1.2-7.3-2-14.7-2.8-22c-1.4-12.3-1.3-24.7-1-37c0.1-3.9,1.1-7.7,1.5-11.6c0.7-7.4,2.4-14.7,3.8-22c2.2-11.6,6.1-22.7,10.2-33.8
	c4.3-11.7,9.7-23,15.7-33.9c3.7-6.8,7.6-13.4,12.5-19.4c4.9-6.1,9.6-12.4,14.5-18.6c4-5.1,8.7-9.7,13.6-13.9
	c5.5-4.7,11.3-9.2,16.7-14c4.2-3.8,8.4-7.3,13.3-10.2c2.6-1.5,5.1-3.2,7.6-4.8c0.7-0.5,1.3-1.1,2-1.6c3.2-2,6.3-4.2,9.7-5.9
	c5.9-3.1,11.8-6.1,17.9-8.7c6-2.6,12.2-4.8,18.4-6.8c6.9-2.2,14-4.2,21-5.9c4.5-1.1,9.3-1.3,13.8-2.3c9.2-2,18.5-2.8,27.9-3.1
	c6.3-0.2,12.5-0.8,18.8-0.9c3.8-0.1,7.6,0.5,11.4,0.8c0.3,0,0.7,0.6,0.7,0.7c-0.2,0.4-0.5,1-0.9,1c-5.1,0.5-9.8,2.3-14.6,4
	c-3.5,1.3-7,2.9-9.9,5.4c-4,3.5-5.5,8.2-5.8,13.3c-0.1,2.4-0.2,4.9-0.3,7.3C239.4,53.8,239.2,54.3,239.1,54.9L239.1,54.9z"/>
<path class="st2" d="M45.4,361.6c1.2,1.4,2.3,2.7,3.5,4.1c2.3,2.9,4.8,5.4,8.2,7c5.8,2.7,11.8,4,18.1,2.1c1.4-0.4,2.6-1.2,3.9-2
	c1.8-1,2-1,3.3,0.7c4.1,5.5,8.3,10.9,12.4,16.4c5.5,7.4,12.2,13.5,18.9,19.8c6.2,5.8,12.2,11.8,19.1,16.8c4,2.9,8.3,5.4,12.3,8.3
	c13,9.4,27.9,14.8,42.5,20.7c6,2.4,12.1,4.4,18.3,5.6c6.1,1.2,12.2,2,18.3,2.9c8.6,1.3,17.2,2,25.9,2.4c6.9,0.3,13.7-0.3,20.5-1
	c4.5-0.5,9.1-1,13.6-1.3c8.5-0.6,16.8-2.6,25.1-4.6c9.7-2.3,19-6,28-10.3c6.4-3.1,12.9-5.9,18.8-10c4.9-3.4,9.7-7,14.5-10.5
	c6.1-4.4,12.2-8.8,18.3-13.2c8.4-6.1,15.8-13.2,23.2-20.3c5.4-5.2,8.7-11.7,10.6-18.9c1-3.8,0-7-3.1-9.6c-2.5-2.1-5.2-3.1-8.4-3.2
	c-5-0.2-9.8,0.4-14.8,0.9c-3.5,0.4-6.5,1.5-9.5,3.2c-0.3,0.1-0.6,0.2-0.9,0.3c-0.1-0.1-0.1-0.2-0.2-0.3c0.3-0.3,0.7-0.7,1-0.9
	c4.3-2.4,8.7-4.3,13.5-5.6c6.1-1.7,12.1-3.8,18.4-5.1c6.2-1.3,12.6-2,19-1.3c4.7,0.5,8.9,2.2,12.2,5.5c1.3,1.3,2,3.3,2.7,5
	c1.6,3.9,1.7,8,1.2,12.2c-0.8,6.3-3.1,11.9-6.7,17.1c-6.1,8.7-13,16.7-20.4,24.3c-2.5,2.6-5,5.4-7.6,7.9
	c-6.5,6.4-13.5,12.1-20.9,17.5c-7.3,5.4-14.1,11.3-22,15.8c-14.5,8.2-29.5,15.3-45.6,19.8c-8.8,2.5-17.6,5.1-26.5,7.3
	c-8.4,2-17,3.4-25.7,3.9c-11.3,0.6-22.6,1.1-34,0.4c-14.2-0.9-28.3-1.8-42.2-5.1c-7.2-1.7-14.2-3.7-21.1-6.5
	c-6.6-2.6-13.3-4.9-19.9-7.5c-2.8-1.1-5.5-2.6-8.3-4c-13.8-6.8-26.8-14.8-38.7-24.5c-5.3-4.3-10.8-8.3-16.3-12.5
	c-1-0.7-1.9-1.5-2.7-2.4c-8.6-8.1-16.4-16.9-24.1-25.8c-3-3.5-5.4-7.3-7.8-11.2c-3.6-5.8-7.6-11.4-11.3-17.1
	c-2.3-3.6-4.4-7.5-6.6-11.2c-0.2-0.4-0.4-0.9-0.6-1.4C45.2,361.7,45.3,361.6,45.4,361.6L45.4,361.6z"/>
<path class="st2" d="M99.1,145.4c0.1,2.2,0.3,4.2,0.3,6.3v25.8c0,2,0.2,4,0.2,6.1c0,1.2-0.3,2.4-0.5,3.6c-0.4,2.4-1.2,4.7-1.2,7
	c-0.1,4.6-0.1,9.3,0.6,13.9s2.7,8.6,7.8,10c2,0.6,3.9,1.4,6,1.5c5.6,0.4,10.6-0.8,15.1-4.5c3.5-2.8,4.2-6.4,4.6-10.3
	c0.1-1.3,0.4-2.6,0.5-3.8c0.1-1.5,0.1-3,0.1-4.5c-0.3-5.5-0.7-11-1.1-16.5c-0.1-1.2-0.1-2.5-0.4-3.7c-1-4.4-1-8.8-0.9-13.2
	c0-2.5,0.8-5.1,1.3-7.6c1.7-9.4,7.2-16.7,13.5-23.5c3.3-3.6,7.3-6.1,11.2-8.8c3.4-2.3,7.3-2.5,11.2-3c4.7-0.6,8.8,0.9,12.9,2.9
	c0.9,0.5,1.9,0.7,2.9,1c3.3,1,6.3,2.5,9,4.7c3.8,3,7.3,6.1,10.2,10c1.3,1.8,2.6,3.8,3.9,5.6c2.6,3.7,6.3,6,10,8.5
	c4.7,3.2,9.9,5.4,15,7.7c1.9,0.8,3.4,2,4.5,3.7c1.2,1.9,2.5,3.7,3.8,5.5c0.9,1.4,1.1,3,1,4.7c-0.5,7.4-0.7,14.8,0.7,22.1
	c0.8,4.3,1.9,8.5,2.7,12.7c0.5,2.4,0.8,4.9,1.2,7.4c0.3,2.3,0.7,4.6,0.9,6.9c0.3,2.4,0,4.7-1.1,6.8c-1.9,3.5-5.8,5.2-9.7,4.1
	c-3-0.8-5.4-2.6-7.7-4.6c-3.4-2.9-6.6-6-10-8.9c-3.1-2.7-6.3-5.2-9.5-7.7c-3.1-2.4-6.4-4.5-9.6-6.7c-0.6-0.4-1.4-0.5-2.1-0.8
	c-1.4-0.6-2.9-1-4.1-1.8c-2.4-1.5-4.6-3.1-6.2-5.6c-2.4-3.9-3.6-7.9-2.8-12.5c0.5-3.1,0.5-6.4,0.9-9.5c0.5-4.1,1.2-8.3,1.7-12.4
	c0.5-3.7,0.2-7.2-2.2-10.3c-1.1-1.4-2.4-2.3-4-2.9c-0.6-0.2-1.3-0.4-1.8-0.6c-2.8-1.4-5.5-0.6-8.1,0.4c-3.1,1.2-5.5,3.3-7.4,6
	c-0.4,0.6-0.9,1.2-1,1.9c-0.8,3.4-1.5,6.9-0.7,10.5c1.2,5.6,2.8,11.2,3.9,16.9c0.7,3.8,1,7.7,1,11.5c0,4.9-0.6,9.7-1,14.5
	c-0.1,0.9-0.4,1.8-0.7,2.6c-1.9,4.6-3.8,9.3-5.9,13.9c-0.8,1.7-1.9,3.1-3,4.7c-2.7,3.9-6.2,7-10.2,9.5c-4.2,2.5-8.8,4.3-13.6,5.4
	c-5.6,1.3-11.1,2.2-16.9,1.7c-3.5-0.3-7.1-0.2-10.5-0.7c-4.4-0.6-8.5-2.4-12.5-4.3c-1.1-0.5-2.1-1.4-3-2.1
	c-6.1-4.6-11.8-9.5-14.2-17.2c-2.1-6.4-3.7-12.9-3.7-19.7c0-4.3-0.4-8.6,0.1-12.9c1.6-14,6.1-26.8,15.6-37.5c3.1-3.5,6.3-7,11-8.5
	C97.3,146.4,98.2,145.8,99.1,145.4L99.1,145.4z M200.6,167.3c-0.6,0.3-1.2,0.5-1.7,0.9c-1.8,1.1-3.6,2.2-5.3,3.4
	c-0.3,0.2-0.6,0.7-0.5,1c0.4,2.5,2.5,3.5,4.8,2.3c1.1-0.6,2.3-1.2,3.5-1.8c0.3,4.6,0.6,9,0.8,13.4c0.1,1.2-0.2,2.4,0,3.5
	c0.6,3.3,1.4,6.4,4.2,8.7c2.1,1.7,4.2,3.6,7,3.9c4.9,0.5,9-1.2,12.4-4.9c2-2.2,2.7-4.9,3-7.7c0.3-3.3-0.5-6.6-3-8.8
	c-4.5-4.1-9.2-7.9-13.8-11.8c-0.5-0.5-1.1-0.9-1.7-1.5c0.8-0.5,1.5-0.9,2.2-1.3c1.8-1.1,1.9-1.6,0.9-3.3c-0.1-0.2-0.3-0.4-0.4-0.6
	c-0.6-0.8-1.2-1.2-2.3-0.7c-2.1,1-4.2,1.8-6.4,2.8c-1.6-2.6-3.1-5.2-4.7-7.9c-0.6,0.4-1.2,0.9-1.8,1.2c-1.1,0.6-1.1,1.2-0.6,2.3
	C198.5,162.5,199.5,164.9,200.6,167.3L200.6,167.3z"/>
<path class="st2" d="M435.8,185.2c-3.2-1.8-6.4-3.5-9.5-5.5c-7.4-4.9-14.7-9.8-22.6-13.8c-0.4-0.2-0.9-0.6-1.1-1
	c-2.9-5.7-7.2-10-12.6-13.3c-4.2-2.5-8.7-3.4-13.4-3.6c-3.6-0.2-6.1,2-8.4,4.4c-2.9,3.1-4.7,6.9-5.5,10.9
	c-1.2,6.2-0.5,12.1,4.4,16.7c4,3.8,8.3,7.1,13.3,9.5c6.2,3,12.3,6.1,18.6,8.9c3.9,1.7,7.6,4,11,6.6c6.3,4.8,9.6,11.7,11.9,19.1
	c0.8,2.6,1.9,5.1,2.4,7.8c0.4,2.2,0.3,4.5,0.2,6.8s-0.6,4.6-0.9,6.9c-0.4,3.3-1.3,6.4-3.4,9c-2.4,3-4.4,6.3-7.4,8.8
	c-3.1,2.5-6.4,4.5-10,6c-7.1,2.9-14.5,4.4-22.1,4.7c-2.4,0.1-4.8,0.5-7.2,0.8c-1.5,0.2-2.7,0.9-4,1.9c-3.7,2.9-7.5,5.6-11.3,8.3
	c-2,1.4-4.2,2.7-6.4,3.9c-4.4,2.4-8.7,2.6-13.3,0.1c-5-2.7-10.3-4.9-15.5-7.2c-1.5-0.7-3.1-1.3-4.6-2c-2-0.8-4.1-1.6-6.1-2.3
	c-4.1-1.5-8.2-3.1-12.3-4.6c-1.2-0.4-2.4-0.7-3.5-1.2c-2.3-0.9-4.7-1.6-6.9-2.7c-1.7-0.8-2.2-2.6-2.7-4.3c-1.3-4.5,0.3-8.3,4.7-10.1
	c7.2-3.1,14.5-5.8,21.7-8.9c5-2.2,10.3-3.7,14.7-7.2c0.6-0.5,1.3-0.9,1.7-1.5c1.7-2.2,3.9-3.5,6.5-4.3c2.2-0.7,4.5-1.6,6.8-1.8
	c4.2-0.3,8.2,0.9,11.8,3.1c3.3,2,6.4,4.2,9.5,6.5c1,0.7,1.8,1.9,2.6,2.9c2.3,2.9,5.2,5,8.4,6.6c5.3,2.7,12.5,0.7,15.8-3
	c2.3-2.6,3.9-5.4,3.9-8.9c0-0.5-0.1-0.9-0.2-1.4c-1-7.4-5.6-11.6-12.5-13.6c-4.6-1.4-9.2-2.6-13.7-4.2c-6-2.2-11.2-5.9-16.2-9.8
	c-3.9-3.1-7.4-6.5-11-9.9c-3.7-3.5-6.1-7.8-7.2-12.8c-1.7-7.9-2.2-15.9-1.2-23.9c1-8.2,4-15.6,8.8-22.4c1.6-2.2,3-4.7,5-6.6
	c2.2-2.3,4.7-4.4,7.5-6.1c3.9-2.4,8.1-4.6,12.7-5.5c5.8-1.2,11.7-1.7,17.6-1.1c5.3,0.6,10.2,2.3,15.1,4.4c5.3,2.3,10,5.6,14.2,9.5
	c8.4,8,15.4,17,19.8,27.9c1.2,2.9,2.2,5.9,2.8,8.9c0.5,2.9,0.3,6,0.3,9c0,1.5-0.2,3.1-0.3,4.6C436.1,185,435.9,185.1,435.8,185.2
	L435.8,185.2z M342,261.8c0,0.2,0.1,0.3,0.1,0.5c0.9,0.2,1.7,0.4,2.6,0.5c1,0.1,1.5,0.6,1.5,1.7c0,2-0.2,4.1,0.1,6.1
	c0.1,1.3,0.5,2.8,1.3,3.7c1.8,2.1,4.4,3.1,7.2,2.3c3.6-1.1,7.2-2.4,10.8-3.7c3.8-1.3,4.3-2.8,4.3-6.1c0-4.3-0.2-8.6-0.5-12.9
	c0-0.4-0.5-1.1-1-1.3c-2.5-1.1-5-2.2-7.5-3.2c-2-0.8-4-1.6-6.1-2.2c-2-0.6-4-0.3-5.7,1c-2.6,2-3.4,4.8-3,8c0.1,0.8,0.3,1.6,0.4,2.4
	c0.2,1.2-0.6,2-1.7,2.2C343.8,261,342.9,261.4,342,261.8L342,261.8z"/>
<path class="st2" d="M328.3,414.1c-0.6,4.4-1,8.5-1.8,12.6c-0.3,1.7-1.3,3.4-2.3,4.9c-1.7,2.6-3.7,5.1-5.6,7.5
	c-4.2,5.3-9.9,8.7-15.7,12c-6.4,3.6-13.4,5.9-20.6,7.3c-4.7,0.9-9.4,1.7-14.2,2.1c-3.2,0.2-6.6-0.1-9.7-0.8c-4.5-1-8.9-2.6-13.3-3.9
	c-2.2-0.7-3.7-2.3-5.3-3.7c-0.1-0.1,0.1-0.9,0.4-1c1.6-1,3.2-2,4.9-2.9c3.9-2.1,8-4.1,11.8-6.3c2.6-1.5,4.9-3.3,7.4-4.9
	c2.3-1.5,4.6-3,7-4.3c0.7-0.4,1.7-0.4,2.6-0.3c4.2,0.6,8.3,0.4,12-1.6c2.1-1.1,3.9-2.7,5.6-4.2c1.8-1.6,3.5-3.3,5-5.1
	c1.6-2,2-4.5,2.6-7c1.2-5.3-1.4-9.3-4.3-13.1c-4.5-5.8-12.6-8-19.7-6.2c-6.5,1.7-12.4,4.6-18.2,7.9c-2.3,1.3-4.2,3.5-6.3,5.3
	c-3.5,3.1-7.1,6.1-10.6,9.2c-0.4,0.3-0.9,0.6-1.2,0.9c-2.1,2-4.6,2.9-7.4,3.5c-4.5,0.9-9,1.8-13.7,1.5c-2.3-0.1-4.6-0.3-6.7-0.8
	c-3.7-0.9-7.5-2-11.1-3.3c-2.4-0.9-4.8-2.1-7-3.5c-6.2-4-10.9-9.3-12.7-16.7c-0.5-2-0.4-4.2-0.6-6.3c-0.1-1.5-0.2-3-0.2-4.5
	c-0.2-6.9,0.1-13.8,3.1-20.2c1.2-2.4,2.6-4.7,3.8-7.2c1-2,1.7-4,1.4-6.3c-0.2-2-0.1-4-0.2-5.9c-0.2-2.8-0.7-5.5-0.8-8.3
	c-0.1-4.3-0.4-8.6,0.2-12.8c0.5-4.5,2.9-8.2,6.8-10.8c0.6-0.4,1.2-0.8,1.8-0.9c4.3-0.8,7.5-3.6,10.8-6.3
	c7.1-5.9,13.4-12.7,20.1-19.1c2.2-2.1,4.6-4.1,7.6-5c3.5-1.1,7.1,0.2,9.1,3.5c2.2,3.7,1.5,7.5,1,11.4c-1,6.7-2.2,13.3-2.7,20.1
	c-0.4,4.9,0,9.9-0.1,14.8c0,3.3,0.1,6.6-0.3,9.9c-0.5,4.7-2.9,8.3-6.6,11.4c-4.8,4.1-10.5,5.8-16.3,7.6c-4.5,1.4-7.9,4.2-11.2,7.4
	c-3.7,3.6-3.3,7.8-2.4,12.1c0.4,2.1,0.9,4.2,2.4,5.9c0.9,1,1.8,1.9,3.3,2.1c2.7,0.4,5.3,1.1,8,1.4c1.7,0.2,3.5-0.1,5.2-0.5
	c1-0.2,2-0.8,2.8-1.5c3-2.6,5.8-5.5,8.8-7.9c2.7-2.2,5.7-4,8.6-5.9c3.1-2,6.3-4,9.5-5.9c4.4-2.5,8.8-5,13.7-6.5
	c5.8-1.8,11.7-2.8,17.8-2.4c9.2,0.6,17.5,3.7,24.8,9.5c3.5,2.8,6.8,5.7,9.2,9.5c3.6,5.7,7,11.6,8.1,18.4
	C327.6,404.6,327.9,409.5,328.3,414.1L328.3,414.1z M201.4,370.1c3.4-7.7,6.8-15.3,10.2-22.9c-0.8-0.4-1.4-0.6-1.8-0.9
	c-0.2-0.2-0.5-0.7-0.4-0.9c1-2.5,2-4.9,3.1-7.5c0.9,2.5,0.4,4.6-1.4,6.5c0.6,0.4,1.1,0.7,1.6,0.9c2.5,1.1,5,1.1,7.6,0.3
	c6.2-1.9,8-8.5,5.9-13.6c-1.1-2.8-3.4-4.5-5.1-6.7c-0.1-0.1-0.4-0.1-0.7-0.2c-0.4,3.9-2.7,5.5-5.5,3.9c0.2-0.6,0.5-1.2,0.7-1.8
	c0.3-0.7,0.4-1.4-0.4-1.9c-0.8-0.4-1.6-0.7-2.3,0.2c-0.5,0.7-1.1,1.3-1.5,2.1c-0.5,1-1.1,1.9-2.2,2c-0.9,0.1-1.8,0-2.7-0.1
	c-0.8-0.1-1.4-0.1-1.9,0.8c0.7,0.5,1.3,0.9,1.9,1.3c1.4,1,1.9,2.6,1.2,4.1c-1,2.2-2.1,4.5-3.1,6.7c-0.4,0.9-0.8,1.1-1.7,0.6
	c-0.8-0.5-1.3-0.3-1.8,0.6c-2.3,5.4-4.7,10.8-7,16.1c-0.8,1.8-1.6,3.7-2.4,5.5c0.3,0.2,0.5,0.4,0.8,0.6c1.2,0.5,1.1,1.2,0.6,2.2
	c-0.9,1.7-1.6,3.4-2.4,5.3c1.3,0.6,2.7,1.1,4,1.8c0.8,0.4,1.1,0.2,1.4-0.6c0.9-1.9,1.8-3.7,2.7-5.6
	C199.6,369.5,200.3,369.7,201.4,370.1L201.4,370.1z"/>
<path class="st2" d="M454.1,224.7c0.2,7.3-2.8,13.4-7.1,19.1c-3.1,4.1-6.6,7.7-10.2,11.3c-1.1,1.1-2.4,2-3.6,2.9
	c-3.6,2.6-7.2,5.1-10.7,7.8c-5.6,4.2-11.9,7.1-18,10.3c-11,5.8-21.8,11.9-32.4,18.4c-5.7,3.5-11.6,6.8-17.4,10.2
	c-0.7,0.4-1.3,1-2,1.4c-2.5,1.5-4.9,3-7.4,4.4c-5.1,2.8-10,6-15.3,8.3c-7.4,3.3-14.1,7.6-21.3,11.3c-4.4,2.3-8.6,4.9-12.9,7.4
	c-5.3,3.1-10.6,6.3-15.9,9.4c-4.6,2.7-9.1,5.4-13.7,8c-4.4,2.4-8.9,4.6-13.3,7.1c-7.6,4.4-15.2,8.9-22.8,13.3
	c-7,4.1-14.1,8.2-21.1,12.3c-1.4,0.8-1.7,0.7-2.4-0.8c-1.5-3.4-1.6-7.1-1.5-10.7c0-0.6,0.5-1.2,0.9-1.7c3.2-4,7.4-6.7,12.3-8.2
	c3-0.9,6-1.5,8.9-2.7c5.7-2.5,11-5.8,13.9-11.6c1-2,1.1-4.6,1.4-6.9c0.3-2.6,0.2-5.2,0.5-7.8c0.1-0.6,0.5-1.5,1-1.8
	c3.3-2.3,6.6-4.6,10-6.6c5.3-3.1,10.7-5.9,16-9c3.5-2,6.8-4.4,10.3-6.4c7.7-4.4,15.5-8.7,23.2-13.1c5.1-2.9,10-6,15-8.9
	c1-0.6,2.1-0.7,3.3-0.8c1.6-0.1,3.3-0.7,4.9-1.4c1-0.4,2-1.1,2.6-2c0.7-0.9,1.3-0.7,2-0.2c2.1,1.4,4.1,2.8,6.3,4.1
	c4.2,2.6,8.8,3.2,13.2,0.9c4-2.1,7.9-4.5,11.7-7c3.4-2.2,6.5-4.8,9.8-7.1c0.9-0.6,2.1-0.9,3.2-1.1c3-0.3,6-0.5,9-0.5
	c7.2,0,13.8-2.1,20.5-4.6c4.2-1.6,7.8-3.9,11-6.7c2.3-2.1,4.4-4.5,6.2-7c2.8-3.9,3.8-8.5,4.2-13.3c0.7-8.1-0.7-16-2.5-23.9
	c-0.7-3.3-2.7-6-4.5-8.6s-3.8-5.3-6.1-7.5c-1.8-1.8-4.2-3.1-6.4-4.6c-1.9-1.3-3.9-2.5-5.9-3.7c-0.4-0.3-0.9-0.5-1.4-0.7
	c-4.7-1.3-9-3.3-13.4-5.1c-7.4-3.1-12.9-8.5-18-14.3c-3.1-3.6-3.6-7.8-2.8-12.4c0.7-3.5,2.4-6.6,4.5-9.5c1.2-1.7,4-2.5,5.8-1.5
	c6.4,3.7,13.5,6.2,19.6,10.5c5.3,3.8,11.1,6.9,16.7,10.3c1.4,0.9,2.8,1.7,4.1,2.6c7.3,5.4,15.3,9.7,22.9,14.7c3,2,5.4,4.6,7.2,7.7
	c0.6,1.1,1.3,2.1,2,3.1c2.7,4.2,3.5,9,4.6,13.7c0.7,3,1,6.2,1.4,9.3C454.4,224.7,454.2,224.7,454.1,224.7L454.1,224.7z"/>
<path class="st2" d="M100.9,325.7c0.2-4.8,0.6-9.6,0.6-14.3c0-7.1-0.2-14.2-0.3-21.3c-0.1-4.3-0.1-8.5-0.1-12.8
	c-0.1-6-0.4-12-0.5-17.9c0-2.3,0.3-4.6,0.5-6.9c0.1-0.9,0.7-1.3,1.6-1.2c2.7,0.1,5.3,0.3,8,0.2c4.7-0.1,9.4-0.4,14-0.6
	c1.1,0,2.2-0.2,3.3-0.1c0.9,0.1,1.8,0.3,2.7,0.7c0.3,0.1,0.5,0.6,0.5,0.9c0.1,0.8,0.2,1.5,0.2,2.3c0.1,5.9,0.1,11.7,0.1,17.6
	c0.1,10.4,0.2,20.8,0.1,31.1c0,5.3-0.5,10.6-0.4,15.9s0.8,10.6,0.9,16c0.2,5.2,0.2,10.5,0.1,15.8c-0.1,7.8-0.5,15.6,0.6,23.4
	c0.2,1.8-0.1,3.7,0.2,5.5c0.3,1.6,1,3.2,1.9,4.6c1.7,2.8,4.6,3.5,7.7,3.7c4.4,0.3,8.4-0.6,12.2-3c4.5-2.8,9-5.7,13.2-9
	c2.3-1.8,5-3.1,7.7-4.4c1.6-0.8,2.7,0.1,2.6,2c-0.2,2.6-0.8,5.2-0.7,7.8c0.2,5.3,0.1,10.6,1.4,15.8c0.4,1.8,0.7,3.6,0.8,5.5
	c0.1,1.8-0.8,3.1-2.4,3.9c-3.8,2-7.5,4-11.3,5.9c-8.5,4.2-17.3,6.8-27,5.1c-2.4-0.4-4.9-0.5-7.3-0.6c-2.1-0.1-3.9-0.8-5.6-2.1
	c-2.2-1.6-4.6-2.9-6.8-4.4c-4.1-2.8-7.2-6.6-10-10.7c-5.1-7.6-7.7-16-8.4-25.1c-0.3-4.2-0.4-8.3-0.5-12.5
	c-0.1-5.1-0.3-10.2-0.3-15.4C100.5,339.8,100.8,332.7,100.9,325.7C101,325.7,101,325.7,100.9,325.7z"/>
<path class="st2" d="M171,112.1c0.2-6.4,1.1-12.7,2.7-19c1.1-4.3,2.3-8.5,5.2-12c2.6-3.1,5.2-6.3,8.2-8.9c2.3-2,5.2-3.2,7.9-4.6
	c5.4-2.8,11.3-3.6,17.3-3.6c5.2,0,10.4,0.7,15.2,2.9c1.2,0.5,2.4,0.9,3.6,1.4c2.7,1.3,5.4,2.7,8.1,4.1c1.7,0.9,3.5,1.7,5.2,2.7
	c3.5,2.1,6.9,4.4,10.4,6.4c3.4,2,7,3.9,10.4,5.9c9,5.3,18,10.8,27,16.1c5.6,3.3,11.3,6.3,17,9.5c2,1.1,3.8,2.5,5.8,3.6
	c4.3,2.5,8.6,4.8,12.9,7.3c5,2.8,9.9,5.7,14.9,8.5c0.9,0.5,1,1.2,0.5,1.9c-0.4,0.6-0.9,1.1-1.4,1.5c-5.1,4.1-7.7,9.7-9.1,15.9
	c-0.5,2.2-1,4.4-1.7,6.6c-0.3,1.2-1.3,0.9-2.1,0.5c-2.3-1.2-4.6-2.3-6.9-3.6c-3.1-1.8-6.1-3.9-9.2-5.8c-1.9-1.2-4-2.2-5.9-3.4
	c-4.6-2.7-9-5.8-13.7-8.2c-7.5-3.8-14.2-8.8-21.3-13.2c-4.4-2.7-8.8-5.4-13.3-8.1c-5-3-10-6.1-15.1-9c-5.2-2.9-10.5-5.7-15.8-8.5
	c-2-1.1-3.9-2.1-5.9-3.2c-3.1-1.7-6.6-2-9.9-2.6c-2.3-0.4-4.4,1-6.3,2.3c-3.2,2.3-4.5,5.7-5.1,9.3c-0.6,3.4-1.2,6.9-1.4,10.4
	c-0.2,3.2,0.2,6.3,0.3,9.5c0.1,1.3,0.3,2.7,0.2,4c0,0.6-0.5,1.3-1,1.6c-0.4,0.2-1.3,0-1.7-0.4c-4.3-3.7-9.4-6.3-14.4-8.8
	c-1.7-0.9-3.7-1.1-5.5-1.6c-1.4-0.4-2.9-0.9-4.3-1.4c-1-0.4-1.6-1.2-1.6-2.4C171,114.6,171,113.3,171,112.1L171,112.1z"/>
<path class="st2" d="M310.3,369.5c-6.4-6.8-14.9-8.4-23.5-10.1c-8.8-1.7-17.1,0.5-25.3,3.5c0.2-0.2,0.5-0.5,0.7-0.6
	c7.2-2.6,13.5-7,19.9-11c8.5-5.3,16.8-10.9,25.4-16c6.6-3.9,13.4-7.4,20.2-10.8c12.7-6.2,24.9-13.5,36.9-20.9
	c7.5-4.7,15.2-9.1,22.9-13.4c8.1-4.5,16.1-9,23.8-14.2c6.9-4.6,13.6-9.3,20.5-13.9c5-3.3,9-7.5,12.6-12.3c1.1-1.5,2.3-3,3.4-4.5
	c0.6-0.9,1.2-0.8,2,0c1.9,2,2.7,4.6,3.3,7.2c0.7,3.2,0.9,6.4,1.3,9.7c0.1,0.4,0.1,0.9,0,1.3c-1.1,4.4-1.8,8.9-4.3,12.8
	c-1.3,2.1-2.6,4.2-3.9,6.2c-2,3.1-4.5,5.9-7.3,8.3c-7.3,6.2-15.1,11.7-23.4,16.5c-11.4,6.5-22.7,13.2-34,19.8
	c-6.9,4-13.9,7.9-20.9,11.8c-5.3,3-10.5,6-15.8,9c-2.7,1.5-5.3,3.1-8,4.7c-4.3,2.6-8.7,5.1-12.9,7.8c-4.3,2.7-8.5,5.4-12.7,8.2
	C310.9,368.7,310.7,369.1,310.3,369.5L310.3,369.5z"/>
<path class="st2" d="M379.4,248.3c-3.2-0.4-6.2-1.8-8.8-4.1c-3.8-3.5-7.6-6.8-11.9-9.6c-4.1-2.7-8.5-4.6-13.4-5.1
	c-5-0.5-9.3,1.5-13.2,4.1c-2,1.3-3.5,1-5.5,0.4c-1.3-0.4-2.7-0.5-4-0.8c-0.8-0.2-1.7-0.4-2.4-0.8c-5.7-3.2-11.4-6.4-17.2-9.6
	c-4.7-2.5-9.5-4.8-14.1-7.5c-9.1-5.4-18-11.1-27-16.7c-3.7-2.3-7.4-4.5-11.1-6.8c-0.3-0.2-0.7-0.4-1-0.5c-1-0.4-1.6-0.8-1.6-2.1
	c0.1-2.5-2.3-5.4-4.9-6.2c-0.9-0.3-1.2-0.8-1.1-1.6c0.1-1.5,0.3-2.9,0.3-4.4c0.2-5.5-2.1-10-5.3-14.2c-0.6-0.8-1.6-1.4-2.5-1.9
	c-4.3-2.5-8.6-4.9-12.9-7.4c-2.4-1.4-4.9-2.7-7.1-4.3c-5.6-4.2-10.2-9.2-13.4-15.5c-0.7-1.3-0.5-2.7,0.4-3.9
	c0.6-0.8,1.4-1.2,2.5-0.5c6.8,4.3,13.7,8.6,20.6,12.8c3.8,2.4,7.7,4.8,11.5,7.1c4.9,3,9.9,6.1,14.8,9.1c2.7,1.6,5.5,3.1,8.2,4.6
	l27.9,16.2c4.2,2.4,8.4,5.1,12.8,7.1c7.4,3.4,13.9,8.4,21.1,12.2c3.7,2,7.4,3.8,11,5.9c4.5,2.5,8.9,5.2,13.3,7.8
	c6.3,3.7,12.6,7.4,19,11.1c6.2,3.6,12.4,7.3,18.6,10.8c2.8,1.6,5.7,3,8.6,4.4c0.9,0.4,1.1,0.9,0.8,2c-1.2,4.8-5.8,7.5-10.2,7.6
	C381.3,248.1,380.4,248.2,379.4,248.3L379.4,248.3z"/>
<path class="st2" d="M171.3,310.9c-0.2-4.8-0.4-9.6-0.5-14.5c-0.1-4.6,0.1-9.2,0.1-13.8c0-2.4-0.1-4.8-0.3-7.2
	c-0.7-11.8-0.1-23.7,0-35.5c0-4,0-7.9,0.4-11.9c1.1-12.1-0.1-24.3,0.2-36.4c0.1-3.4,0.2-6.7,0.1-10.1c-0.1-4.7-0.5-9.4-0.7-14
	c-0.1-4.3-0.1-8.7-0.1-13c0-2.4,1.1-3.4,3.5-3c1.3,0.2,2.6,0.6,3.8,1c3.8,1.1,5.1,4,5.5,7.6s-0.1,7.1-0.6,10.7
	c-0.8,5.6-1.4,11.3-2.3,16.9c-0.6,3.8,0.8,7.1,2.2,10.4c1.3,3,3.7,5.2,6,7.3c0.4,0.3,0.9,0.6,1.3,0.8c1.9,0.7,3.3,2.1,4.3,3.7
	c0.5,0.8,0.4,1.9,0.6,2.8c0.5,2.4,1.5,4.5,3.1,6.4c0.6,0.8,0.7,2.1,0.7,3.2c0.2,10.1,0.4,20.1,0.6,30.2c0.1,4.5,0.4,9,0.4,13.5
	c0,6.1-0.2,12.1-0.2,18.2c0,3.2,0.1,6.5,0,9.7c-0.1,5.4-0.3,10.7-0.5,16.1c-0.1,2.4-1.5,4-3.6,4.9c-2.9,1.2-5.1,3.2-7.1,5.4
	c-1.8,2-2.5,4.7-2.7,7.5c-0.5,8.4-0.7,16.8-0.1,25.2c0.2,3.5-0.6,6.8-2.6,9.8c-1.9,2.7-3.9,5.2-6.7,6.9c-1.2,0.7-2.4,1.4-3.6,2
	c-1,0.5-1.9-0.3-2-1.6c-0.1-1.6,0-3.2,0-4.8c0.1-4.2,0.3-8.4,0.3-12.6c0-5.4,0-10.9-0.1-16.3c0-2.6,0-5.2,0-7.9c0-5.8,0-11.6,0-17.4
	C171,310.9,171.1,310.9,171.3,310.9L171.3,310.9z"/>
<path class="st2" d="M165.3,212.8c0.2,1.9,0.7,3.8,0.7,5.7c0.1,4.3-0.1,8.6-0.1,12.9v28.3c0,1.2-0.1,2.3-0.1,3.5
	c-0.1,5.6-0.3,11.3-0.3,16.9c0,9.3,0.1,18.6,0.2,27.9c0,4.3,0.2,8.7,0.2,13c0,5.6-0.3,11.2-0.3,16.8c0,3.3,0.3,6.6,0.4,9.9
	c0.2,5.6,0.3,11.3,0.4,16.9c0,2.4,0,4.7-0.3,7.1c-0.1,1.1-0.4,2.3-1.1,3.2c-0.9,1.3-2.1,2.6-3.4,3.4c-4.2,2.6-8.3,5.4-13.1,6.8
	c-3,0.9-6.2,1.2-9.2,0c-2-0.7-3.4-2.5-3.4-4.6c0.1-3.1,0.1-6.2,0-9.3c-0.1-5.1-0.4-10.1-0.5-15.2c-0.1-4.9,0-9.8-0.1-14.7
	c-0.1-5.1-0.4-10.2-0.3-15.4c0-5.9,0.3-11.9,0.4-17.8c0.1-5.3-0.1-10.6,0-15.9c0-6.7,0.1-13.3,0.2-20c0.1-7.2,0.2-14.5,0-21.7
	c0-1.7,0.6-2,1.8-2.6c2.5-1,5.2-2,7.5-3.5c2.9-2,5.7-4.3,7.9-6.9c3.3-3.8,6.5-7.9,8.4-12.7c1.5-3.8,3.4-7.4,3.6-11.6
	c0-0.2,0.2-0.4,0.2-0.6C165.1,212.8,165.2,212.8,165.3,212.8L165.3,212.8z"/>
<path class="st2" d="M351.4,211.7c-0.6-0.2-1.3-0.4-1.8-0.7c-6.2-3.5-12.5-6.9-18.5-10.7c-12.3-7.6-24.4-15.4-36.7-23.1
	c-5.6-3.5-11.3-6.9-17-10.2c-2.3-1.3-4.7-2.3-7-3.6c-12-6.9-23.9-13.9-35.8-21c-7.5-4.4-14.9-9-22.4-13.5c-2.7-1.6-5.5-3.2-8.3-4.8
	c-2.8-1.5-4.1-4.4-3.6-7.5c0.2-1,0.4-1.9,0.4-2.9c0-4.4,1.3-8.5,2.6-12.7c0.8-2.7,2.2-5.1,5.3-5.7c0.8-0.1,1.8-0.1,2.4,0.2
	c2.3,1.2,4.6,2.6,6.9,4c4.7,2.8,9.4,5.7,14.2,8.4c10.1,5.7,20.2,11.4,30.3,17.1c3.4,2,6.7,4.2,10.1,6.2c4.9,2.9,9.9,5.8,14.9,8.7
	c4.6,2.6,9.1,5.3,13.8,7.8c5.1,2.7,10.2,5.3,15.3,8c3.9,2.1,7.6,4.3,11.4,6.5c0.2,0.1,0.5,0.3,0.7,0.3c0.8-0.1,0.9,0.4,0.9,1
	c-0.3,5.5,0.2,11,1.6,16.4c0.1,0.2,0.2,0.5,0.2,0.8c-0.1,4.2,1.8,7.7,3.3,11.4c1.7,4.1,4.3,7.7,7.5,10.7c2.8,2.6,5.9,4.9,8.9,7.3
	c0.3,0.3,0.6,0.6,0.9,0.9C351.6,211.4,351.5,211.6,351.4,211.7L351.4,211.7z"/>
<path class="st2" d="M453.5,298.6c-0.5,6.6-1.1,13.2-4.4,19.1c-3.8,6.7-8.8,12.4-15.3,16.5c-4.1,2.6-8.3,5-12.4,7.6
	c-2.7,1.7-5.2,3.6-7.9,5.3c-3.1,2-6.3,3.8-9.5,5.7c-6.7,4-13.5,8-20.3,11.9c-3.2,1.9-6.7,3.3-9.9,5.2c-5.9,3.3-11.6,6.9-17.5,10.3
	c-5,2.9-10,5.5-15,8.4c-3.5,2-7,4.1-10.5,6.3c-1.1,0.7-1.6,0.5-2.2-0.7c-2.1-4.4-4.2-8.8-7.3-12.7c-2.1-2.7-4.4-5.3-6.6-8
	c-1-1.2-1-1.7,0.2-2.4c6.3-3.8,12.6-7.8,19-11.4c8.5-4.8,17-9.4,25.6-14.1c10.3-5.7,20.5-11.4,30.8-17.2c2.7-1.5,5.3-3.4,8-5
	c6.1-3.5,12.2-6.9,18.2-10.5c1.2-0.7,2.3-1.6,3.4-2.4c2.9-2.1,5.6-4.4,8.5-6.5c4.3-3,7.6-7.1,11.5-10.6c2.3-2,4.3-4.2,6.5-6.3
	c0.6-0.6,1.2-1.2,1.7-1.9c0.6-0.9,1.2-0.8,1.7-0.1c0.6,0.8,1.1,1.7,1.5,2.7C452.6,291.3,453.6,294.8,453.5,298.6L453.5,298.6z"/>
<path class="st2" d="M211.2,456.1c-6.5-0.5-12.5-1.9-18.2-4.4c-3.9-1.7-7.2-4.2-10-7.3c-0.9-0.9-1.4-2.1-2-3.3
	c-0.1-0.3,0.1-1.1,0.4-1.2c1-0.4,2-0.7,3-0.9c6.2-1.1,12-3.3,17.6-5.9c3.3-1.5,6.3-3.4,9.3-5.4c3.6-2.4,7.7-2.8,11.8-3.2
	c2.7-0.2,5.5-0.3,8.2-0.7c4-0.6,7.3-2.7,10.4-5.2c5.1-4.2,10.1-8.6,15.2-12.8c1.1-0.9,2.5-1.8,3.8-2.4c4.7-2,9.5-4.1,14.3-5.8
	c4.3-1.5,8.7-1.3,13,0.2c2.5,0.8,4.3,2.5,5.7,4.8c1.8,2.9,3.4,5.9,4.2,9.2c0.5,2,0.2,2.8-1.6,3.9c-5.3,3.2-10.7,6.4-16.1,9.5
	c-7.2,4.2-14.5,8.1-21.5,12.5c-5.3,3.3-10.6,6.5-16.2,9.4c-0.3,0.2-0.6,0.4-1,0.7c-2.1,1.6-4.3,3-6.9,3.7c-4.9,1.3-9.8,2.8-14.8,3.9
	C217,455.9,213.9,455.8,211.2,456.1L211.2,456.1z"/>
<path class="st2" d="M100.1,202.2c0.3-3,0.6-6.1,0.8-9.1c0.2-3.5,0.4-7,0.5-10.6c0.2-4.5,0.4-9,0.5-13.5c0.2-5.2,0.3-10.3,0.6-15.5
	c0.2-4.5,0.5-8.9,1-13.4c0.6-5.5,2-10.7,5.1-15.4c1.6-2.4,2.7-5.1,4.9-7.1c3.3-2.9,6-6.5,10-8.5c2.5-1.3,5.1-2.4,7.8-3.4
	c1.9-0.7,3.9-1.2,5.8-1.7c0.5-0.1,1.2-0.3,1.6,0c0.3,0.2,0.3,1.1,0.2,1.5c-0.7,2-1.4,3.9-2.1,5.8c-1.5,3.9-1.9,8-2,12.2
	c-0.1,3-0.1,5.9,0,8.9c0,1.6,0.2,3.3,0.4,4.9c0.1,1,0.1,1.9-0.8,2.7c-0.6,0.6-0.9,1.6-1.3,2.5c-2.2,4.9-3.6,10-4.3,15.2
	c-0.5,3.1-0.1,6.4,0,9.5c0.2,3.7,0.6,7.3,0.8,10.9c0.4,7.3,1,14.6,1.2,21.9c0.2,4.9-1,9.5-4.3,13.3c-2.2,2.7-5.2,4-8.5,4.4
	c-2.7,0.3-5.4,0.1-8.1-0.1c-3.4-0.3-5.5-2.4-7.3-5.2C100.5,209.2,100.3,205.8,100.1,202.2L100.1,202.2z"/>
<path class="st2" d="M148.4,419.7c4.7-0.7,9.4-1.2,13.8-3.4c4-2.1,8.2-3.9,12.3-5.9c2.1-1,4-2.3,6-3.4c0.3-0.1,1,0.1,1.2,0.4
	c2.4,4.5,6.3,7.5,10.6,9.9c2.7,1.5,5.7,2.4,8.6,3.6c3,1.2,6,2.3,9,3.5c1.2,0.5,1.4,1.3,0.3,2c-1.6,1.1-3.3,2.2-5.1,3
	c-3.3,1.6-6.7,3.1-10.2,4.3c-4.4,1.5-8.9,2.7-13.4,3.7c-1.5,0.4-3.2,0-4.9-0.2c-2.3-0.3-4.7-0.5-7-1c-6.7-1.4-12.6-4.5-17.9-8.7
	c-1.9-1.5-3.4-3.6-5.1-5.5c-0.2-0.2-0.4-0.6-0.5-0.9c-0.4-1,0-1.5,1.1-1.5C147.5,419.7,148,419.7,148.4,419.7L148.4,419.7z"/>
<path class="st2" d="M136.3,129.7c0.2-6.2,0.8-12.3,2.6-18.2c1.4-4.9,3.9-9.3,7.3-13.2c2.1-2.4,3.8-5,6.5-6.8
	c0.6-0.4,1.2-0.9,1.8-1.2c4.7-2.2,9.4-4.7,14.5-5.8c0.8-0.2,1.5-0.6,2.3-0.7c1.3-0.2,1.8,0.4,1.5,1.6c-0.6,2.6-1.4,5.2-1.8,7.8
	c-0.9,5.6-1.6,11.3-1.4,17.1c0.1,1.5,0,3.1-0.2,4.6c-0.1,1.1-0.8,1.7-1.9,2c-2.3,0.6-4.7,1.1-6.9,2.1c-3.4,1.5-6.9,3.1-9.9,5.3
	c-3.9,2.9-7.4,6.5-11.1,9.8c-0.7,0.6-1.3,1.4-2.1,1.9c-1,0.7-1.9,0.2-1.8-1C135.9,133.2,136.1,131.4,136.3,129.7L136.3,129.7z"/>
<path class="st2" d="M243.3,237.1c1.1,0.6,2.2,1,3.1,1.6c6.4,3.8,12.8,7.7,19.2,11.5c4,2.4,8,4.7,11.9,7c1.3,0.8,2.5,1.6,3.7,2.4
	c0.8,0.5,0.9,1.4,0.1,1.9c-1.7,1.2-3.3,2.4-5.2,3.4c-5.4,2.8-10.9,5.6-16.3,8.3c-2.8,1.4-5.8,2.7-8.6,4.1c-2.1,1.1-4.2,2.3-6.3,3.5
	c-0.3,0.2-0.7,0.3-1.1,0.3c-0.8,0.1-1.2-0.3-1.2-1.1c0-7.7-0.1-15.3-0.1-23c0-1.7,0.2-3.4,0.2-5c0-2.5-0.1-5.1-0.2-7.6
	c0-2-0.1-3.9,0-5.9C242.6,238.1,243,237.6,243.3,237.1L243.3,237.1z"/>
<path class="st2" d="M363.3,218.1c0.2,0,0.4,0,0.6,0.1c4.6,3.2,10.1,4.3,15.4,5.9c3,0.9,6.2,1.4,8.8,3.4c1.8,1.5,3.4,3.2,3.8,5.6
	c0.3,1.8-0.2,2.3-1.7,1.5c-2.7-1.3-5.4-2.7-8-4.3c-4.9-3-9.7-6.1-14.6-9.1c-1.2-0.7-2.4-1.4-3.5-2.1c-0.3-0.2-0.5-0.5-0.8-0.7
	C363.2,218.3,363.3,218.2,363.3,218.1L363.3,218.1z"/>
<path class="st2" d="M204.6,219.8c-5.2,0.3-7.6-3.3-8.1-7.3c-0.1-0.8-0.5-1.5-0.4-2.3c0.1-0.7,0.4-1.5,0.9-2.1
	c0.2-0.2,1.1,0,1.5,0.3c2.9,2.1,5.7,4.2,8.5,6.4c0.8,0.6,1.5,1.2,2.3,1.6c1.1,0.6,0.8,1.3,0.1,1.9
	C208,219.6,206.4,220.2,204.6,219.8L204.6,219.8z"/>
<path class="st2" d="M214.9,390.5c8.2-4.8,16.2-9.5,24.1-14.1c0.1,0.1,0.2,0.3,0.4,0.4c-0.5,0.5-1,1.1-1.6,1.5
	c-2.9,2.2-5.3,4.8-7.5,7.7c-1.9,2.4-4,4.7-7.1,5.1c-2.3,0.4-4.7,0.1-7,0C215.7,391.3,215.5,391,214.9,390.5L214.9,390.5z"/>
<path class="st2" d="M165.3,186.1c-0.8-3.9-1.7-7.9-2.4-11.8c-0.6-3.4-1.2-6.8-1.4-10.3c-0.1-2.1,0.5-4.2,1-6.3
	c0.2-0.9,0.9-1.6,2.2-1.2c0.4,9.8,0.8,19.7,1.2,29.6C165.8,186.1,165.6,186.1,165.3,186.1z"/>
<path class="st2" d="M200.1,308.9c0.1-1,0.1-2.1,0.3-3.1c0.5-2.9,2.8-4.5,5.6-4c1.3,0.2,2.6,0.6,3.9,1c1,0.3,1.1,1.1,0.3,1.8
	c-2.2,1.9-4.4,3.8-6.6,5.8c-0.5,0.4-0.9,1-1.4,1.5c-0.3,0.2-0.8,0.5-1.1,0.4c-0.4-0.1-0.8-0.6-0.8-1c-0.1-0.8,0-1.6,0-2.4
	C200.2,308.9,200.2,308.9,200.1,308.9L200.1,308.9z"/>
<path class="st2" d="M241,187.6c0-0.6,0-0.8,0-1.1c0-1.4,0.4-1.7,1.7-1.3c2.2,0.7,3.6,2.2,4.3,4.4c0.9,2.9,0.2,5.5-1.3,8
	c-0.3,0.5-0.9,0.9-1.4,1.1c-1,0.4-1.9,0-2.1-1.1c-0.4-2.5-0.7-5-1-7.5C241.2,189.2,241.1,188.3,241,187.6L241,187.6z"/>
<path class="st2" d="M242.9,319c3.3,1.9,5.8,4.3,5.6,8.4c-0.2,3.3-2.9,4.7-5.1,6.5C242.5,332.9,242.1,320.5,242.9,319z"/>
<path class="st2" d="M315.5,280.6c0.7,0.1,1.3,0.1,1.9,0.3c3.2,1.3,6.4,2.5,9.6,3.9c0.5,0.2,0.9,0.8,1.4,1.2
	c-0.5,0.5-0.9,1.2-1.5,1.5c-5.5,2.5-9.9-0.2-11.6-5.2C315.1,281.9,315.4,281.3,315.5,280.6L315.5,280.6z"/>
<path class="st2" d="M315.7,241.9c0-2.2,1.1-4.1,3.5-5.2c2.5-1.1,5-1.4,7.6-0.7c0.4,0.1,0.8,0.4,0.9,0.7c0.1,0.2-0.3,0.6-0.6,0.8
	c-3.1,2.7-6.9,3.8-10.5,5.7C315.8,243.7,315.6,243,315.7,241.9z"/>
<path class="st2" d="M202.5,170.9c-2.1,1.1-4,2.1-5.9,3c-0.3,0.2-1.1,0.1-1.3-0.2c-0.3-0.3-0.4-1-0.2-1.4c0.2-0.5,0.8-0.9,1.3-1.2
	c2-1.2,4-2.3,6.1-3.4c-0.8-1.4-1.5-2.6-2.2-3.9c-0.7-1.2-1.3-2.5-1.9-3.7c-0.4-0.8,0.1-1.1,0.8-1.5c1.5,2.4,2.9,4.7,4.3,7.1
	c0.6,1,1.3,1.1,2.2,0.6c1.5-0.8,3-1.6,4.4-2.5c0.8-0.5,1.5-0.4,1.9,0.2c0.2,0.2-0.3,1.1-0.8,1.5c-1.1,0.8-2.2,1.5-3.4,2.2
	c3.8,3,7.5,5.9,11,8.8c2.1,1.7,4.2,3.5,5.8,5.7c2.9,3.8,3.6,8.8,1,13c-2.4,3.8-6.1,5.6-10.6,5.5c-4.3-0.1-7.3-2.3-9.5-5.9
	c-1.8-2.9-1.9-6.2-2-9.5c-0.2-4.5-0.5-8.9-0.8-13.4C202.7,171.7,202.6,171.4,202.5,170.9L202.5,170.9z M204.5,170.3
	c0.2,1.6,0.5,3.1,0.5,4.5c0,5,0.6,9.9,1.5,14.9c1.2,6.5,6.5,9,11.2,7.9c5-1.2,9.4-9,4.3-14.4c-2.5-2.7-5.3-5.1-8.1-7.4
	c-2.6-2.2-5.5-4.1-8.2-6.2C205.3,169.8,204.9,170.1,204.5,170.3z"/>
<path class="st2" d="M367.6,254.5v12.2c0,0.8-0.1,1.7-0.4,2.5c-0.1,0.4-0.6,0.9-1,1.1c-1.7,0.6-3.5,1.1-5.2,1.7
	c-2.2,0.7-4.4,1.6-6.7,2.2c-3.3,0.9-6.3-1.4-6.3-4.8c0-1.6,0.1-3.2,0.3-4.7c0.2-1.4,1.4-1.7,2.4-2.1c0.3-0.1,0.6-0.3,0.9-0.5
	c-0.2-0.3-0.3-0.7-0.6-0.8c-2.6-1-3.4-2.9-3-5.6c0.2-1.3,0-2.7,0.7-4c1.2-1.9,3.4-3,5.5-2.3c3.7,1.3,7.4,2.8,11.1,4.2
	C366,254,366.7,254.2,367.6,254.5L367.6,254.5z"/>
<path class="st2" d="M212.8,343.9c1.1-1.7,1.9-3.7,1-5.5c-0.9-1.9-0.2-3.4,0.4-5c0.2-0.6,0.4-1.2,0.7-1.6c0.2-0.3,0.6-0.6,1-0.6
	c2.8,0.1,4.6-1.3,5.5-3.9c3.7,3.4,5.5,8.3,2.8,12.4C221.6,343.6,216,346.1,212.8,343.9z"/>
<path class="st2" d="M214.3,327.6c-0.5,1.6-0.9,3.3-1.5,4.9c-1.5,3.8-3.1,7.5-4.7,11.3c-0.3,0.8-0.7,1.3-1.7,0.8
	c-0.7-0.4-0.9-0.7-0.6-1.5c1.3-3,2.4-6,3.8-9c1-2.1,2.3-4.1,3.4-6.2c0.2-0.3,0.5-0.4,0.7-0.6C214,327.5,214.2,327.6,214.3,327.6
	L214.3,327.6z"/>
<path class="st2" d="M206.7,171.9c2.3,1.6,4.3,3.1,6.4,4.5c3.2,2.2,5.8,5,8.2,7.9c1.8,2.2,1.9,4.6,1,7.1c-0.7,2-1.9,3.7-3.8,4.7
	c-2.2,1.1-6.5,0.1-8.1-1.8c-1.4-1.6-2.1-3.4-2.5-5.5c-1.1-5.3-1.3-10.7-1.3-16.1C206.6,172.6,206.7,172.5,206.7,171.9L206.7,171.9z"
	/>
</svg>
