<?xml version="1.0" encoding="utf-8"?>
<!-- Generator: Adobe Illustrator 24.1.3, SVG Export Plug-In . SVG Version: 6.00 Build 0)  -->
<svg version="1.1" id="Layer_1" xmlns="http://www.w3.org/2000/svg" xmlns:xlink="http://www.w3.org/1999/xlink" x="0px" y="0px"
	 viewBox="0 0 512 512" style="enable-background:new 0 0 512 512;" xml:space="preserve">
<style type="text/css">
	.st0{fill:#FFFFFF;}
</style>
<g transform="translate(0,0)">
	<path class="st0" d="M250.7,279c-24.7,0.1-24.7,1.9-24.7,30v97h-60l90,90l90-90h-60v-97c0-30,0-30-30-30
		C254.1,279,252.4,279,250.7,279z"/>
</g>
<g>
	<polygon class="st0" points="261.9,24.1 288.7,107.3 272.7,112.4 261.3,77.1 230,167.4 214.1,161.9 261.9,24.1 	"/>
	<polygon class="st0" points="109.5,128.2 200.3,131.5 199.7,148.3 161.6,146.9 239.6,206.6 229.4,220 109.5,128.2 	"/>
	<polygon class="st0" points="264.3,131.9 410,139.8 336.6,188.9 327.3,174.9 358.8,153.9 263.4,148.7 264.3,131.9 	"/>
	<polygon class="st0" points="192.2,221.5 207.9,227.4 193.9,264.9 272,212 281.4,225.9 159.7,308.4 192.2,221.5 	"/>
	<polygon class="st0" points="290.5,177.9 306.6,173.2 347.9,313.7 276,257.5 286.4,244.2 317,268.2 290.5,178 	"/>
</g>
</svg>
