<?xml version="1.0" encoding="utf-8"?>
<!-- Generator: Adobe Illustrator 24.1.3, SVG Export Plug-In . SVG Version: 6.00 Build 0)  -->
<svg version="1.1" xmlns="http://www.w3.org/2000/svg" xmlns:xlink="http://www.w3.org/1999/xlink" x="0px" y="0px"
	 viewBox="0 0 512 512" style="enable-background:new 0 0 512 512;" xml:space="preserve">
<style type="text/css">
	.st0{filter:url(#Adobe_OpacityMaskFilter);}
	.st1{fill:#FFFFFF;}
	.st2{mask:url(#SVGID_1_);}
</style>
<g id="Layer_4">
</g>
<g id="Layer_3">
	<defs>
		<filter id="Adobe_OpacityMaskFilter" filterUnits="userSpaceOnUse" x="-174.9" y="-226.3" width="851.6" height="942.7">
			
				<feColorMatrix  type="matrix" values="-1 0 0 0 1  0 -1 0 0 1  0 0 -1 0 1  0 0 0 1 0" color-interpolation-filters="sRGB" result="source"/>
			<feFlood  style="flood-color:white;flood-opacity:1" result="back"/>
			<feBlend  in="source" in2="back" mode="normal"/>
		</filter>
	</defs>
	<mask maskUnits="userSpaceOnUse" x="-174.9" y="-226.3" width="851.6" height="942.7" id="SVGID_1_">
		<g class="st0">
			<g transform="translate(0,0)">
				<path class="st1" d="M196,361h120l-60-60L196,361z M196,286h120l-60-60L196,286z M196,211h120l-60-60L196,211z"/>
			</g>
		</g>
	</mask>
	<g transform="translate(0,0)" class="st2">
		<path class="st1" d="M401.3-226.3c-57.7,61.9-72.1,135.1-59.2,215.5C389.4-73.7,412.4-144.5,401.3-226.3z M-131.5,2.4
			C-86.5,44.8-30,70.5,36.1,82.6C18.7,34.4-4.5-6.3-34.1-38.5L-131.5,2.4L-131.5,2.4z M207.7-122.9c-4.8,103.5-1.3,205.3,9.2,305.6
			C172,130,122.7,80.3,68.4,34.1c23.5,54.9,50.8,106.5,81.6,155.1C69.5,160.1-12.8,135-97.4,114.2c72.4,47.6,146.5,89.6,222.3,126.5
			c-44.7,4.1-91.2,20.2-135,46c38.7,10.3,81.4,15.9,122.9,12.5C42.4,333.6-26.8,371.6-94.7,413.6c66.8-14.1,131.9-31.5,195.4-52
			c-27.2,27.2-53.5,55.9-78.6,86.2c60.3-25.8,116.4-56.5,168.9-91.4c-11.2,43.3-18.5,88-22.6,133.9c28.8-38.9,54.2-79.4,76.1-121.6
			c18.3,95.8,42.5,190.4,71.6,284c0.2-90-3.5-179.8-11.6-269.4c34.6,35.4,71.3,69,109.8,100.9c-27.4-54.9-57.5-107.9-90.7-158.7
			c97.1,35.9,196.3,65,297.2,88.7c-90.7-54.1-183.9-103.4-279.9-147.2c95.5-44.5,187.6-95.6,277-152.2
			c-75.1,19.4-149.2,41.6-222.3,67c23.7-25.3,46.6-51.6,68.6-78.9c-52.9,26.5-104,55.7-153.1,87.9c7.8-32.3,13.6-65.5,17.2-99.7
			c-19.8,22.9-37.4,46.5-53.1,70.9C258.4,66.8,236.1-28.2,207.7-122.9L207.7-122.9z M487.2-187.5c-55.4,71.6-89.1,160.1-97.3,268.9
			C458.3,51,509.7,8.2,547.2-44.4L487.2-187.5L487.2-187.5z M-169.1,205.9c-1.9,0.8-3.8,1.6-5.8,2.4c58.5,38.8,119,48.1,182.6,10.6
			C-50.5,182.5-109.5,181.4-169.1,205.9z M501.8,243.6c-15.7,6.5-31.2,15-46.7,25.2c75.1,33.3,149.1,33.9,221.6-11.1
			C615.9,221.6,557.9,220.3,501.8,243.6L501.8,243.6z M90.5,455.9c-11.9,5-23.2,10.7-34.1,16.7c-36.3,19.8-66.9,45.1-91.9,76
			L9.3,655.3c44.4-53.6,76.5-120.6,93.4-204.2C98.6,452.6,94.5,454.2,90.5,455.9L90.5,455.9z M208.1,495.2
			c-60.5,66.5-65,141.2-34.4,221.2C221.2,649.6,236.9,576.7,208.1,495.2z M452.9,420.5C478.6,478.3,514.3,522,558,554l117.4-49.2
			C615.9,457.5,542.7,428.4,452.9,420.5L452.9,420.5z"/>
	</g>
</g>
<g id="Layer_1">
</g>
</svg>
