<?xml version="1.0" encoding="utf-8"?>
<!-- Generator: Adobe Illustrator 24.1.3, SVG Export Plug-In . SVG Version: 6.00 Build 0)  -->
<svg version="1.1" xmlns="http://www.w3.org/2000/svg" xmlns:xlink="http://www.w3.org/1999/xlink" x="0px" y="0px"
	 viewBox="0 0 512 512" style="enable-background:new 0 0 512 512;" xml:space="preserve">
<style type="text/css">
	.st0{fill-rule:evenodd;clip-rule:evenodd;fill:#FFFFFF;}
	.st1{filter:url(#Adobe_OpacityMaskFilter);}
	.st2{fill:#FFFFFF;}
	.st3{mask:url(#SVGID_1_);fill-rule:evenodd;clip-rule:evenodd;fill:#FFFFFF;}
</style>
<g id="Layer_2">
	<ellipse class="st0" cx="266.1" cy="226.1" rx="17.7" ry="17.1"/>
	<ellipse class="st0" cx="275.5" cy="8.6" rx="8.8" ry="8.6"/>
	<ellipse class="st0" cx="270.8" cy="134.1" rx="8.8" ry="8.6"/>
	<ellipse class="st0" cx="240" cy="57" rx="11.8" ry="11.4"/>
	<ellipse class="st0" cx="244.1" cy="175.8" rx="11.8" ry="11.4"/>
	<ellipse class="st0" cx="237.3" cy="282.7" rx="11.8" ry="11.4"/>
	<path class="st0" d="M196.8,89.4h117.8c6.5,0,11.8,5.1,11.8,11.4s-5.3,11.4-11.8,11.4c0,170.2-1.7,145.9,86,284.5
		c35.2,55.7,26.9,115.3-48.9,115.3H157.9C82.1,512,78,445.6,109,396.7c87.3-138.1,87.9-115.1,87.9-284.5c-6.5,0-11.8-5.1-11.8-11.4
		S190.4,89.4,196.8,89.4L196.8,89.4z M214.5,112.3c0,32.5,0.5,65.6-1.5,98c-1.3,21.2-3.9,41.9-10.9,62.1
		c-6.7,19.4-16.9,37.3-27.8,54.7c-16.4,26.4-33.7,52.3-50.3,78.5c-11.9,18.8-22.5,50.4-9.8,71.1c8.9,14.6,27.4,18.1,43.7,18.1h193.8
		c16.3,0,37-3.2,46.2-18.1c12.7-20.7-0.7-52.7-12.3-71.1c-16.6-26.2-33.9-52.1-50.1-78.5c-10.7-17.4-20.7-35.1-27.1-54.5
		c-6.7-20.2-9-40.9-10.2-62c-1.7-32.6-1.2-65.8-1.2-98.4L214.5,112.3L214.5,112.3z"/>
	<defs>
		<filter id="Adobe_OpacityMaskFilter" filterUnits="userSpaceOnUse" x="126" y="312" width="259.3" height="166.5">
			
				<feColorMatrix  type="matrix" values="-1 0 0 0 1  0 -1 0 0 1  0 0 -1 0 1  0 0 0 1 0" color-interpolation-filters="sRGB" result="source"/>
			<feFlood  style="flood-color:white;flood-opacity:1" result="back"/>
			<feBlend  in="source" in2="back" mode="normal"/>
		</filter>
	</defs>
	<mask maskUnits="userSpaceOnUse" x="126" y="312" width="259.3" height="166.5" id="SVGID_1_">
		<g class="st1">
			<g transform="translate(0,0)">
				<path class="st2" d="M157.7,280.2c5.5,24.2,21.4,40.2,43.8,50.9C194,309.2,180.2,291.7,157.7,280.2z M122.2,445
					c18.5-3.3,34.8-12.2,49.4-25.7c-15.1-4.2-29.4-5.7-42.7-4.2L122.2,445L122.2,445z M149.9,343.6c25.2,18.9,51.4,35.5,78.4,50.3
					c-21.1,1.5-42.2,4.7-63.3,9.5c17.9,3.9,35.6,6.3,53.2,7.4c-21.3,14-42,29.1-62,45.4c24.6-8.9,48.1-19.2,70.6-30.7
					c-6.8,11.2-10.8,25-12,39.7c9.4-7.4,18.2-16.5,24.6-26.8c-3.6,22.5-6.1,45.3-7.4,68.5c8.1-18.2,15.1-36.5,21-55
					c2.1,11.1,4.7,22.2,7.9,33.3c4-18.6,6.1-37.1,6.5-55.5c8.9,10.1,18.9,19.5,29.7,28.3c-4.8-13.5-10.5-26.4-17.3-38.8
					c27.3,12.1,55.3,22.7,83.9,31.9c-22.6-15.5-45.8-30-69.7-43.5c14.9-2.1,29.8-5,44.5-8.6c-18.6-3-37.1-5-55.7-5.9
					c25.9-16.7,50.6-35.1,74.1-54.8c-29.4,12.1-58.1,25.6-85.8,40.7c5.5-30.1,8.7-60.6,10-91.4c-8.2,21-15.6,42.3-21.9,63.9
					c-2.2-9.9-4.8-19.8-7.9-29.7c-2.6,17-4.1,34.1-4.6,51.2c-6.8-7.4-14.1-14.4-22.1-21.2c2.3,8.6,5.2,16.8,8.6,24.7
					C206.4,364.2,178.7,353.2,149.9,343.6L149.9,343.6z M182.4,266.7c8.3,25.3,24.7,48.5,50.6,69.1c4.3-21.3,2.5-40.8-4.2-58.7
					L182.4,266.7L182.4,266.7z M166.8,488.8c-0.1,0.6-0.3,1.2-0.4,1.8c19.9-7.1,32.8-19.8,34.5-41.2
					C181.7,456.9,171.1,470.6,166.8,488.8z M293.3,337.2c-1.1,4.8-1.7,9.9-1.8,15.3c21.5-12,34.5-29.3,35.9-54.1
					C307.7,306.5,297.2,320,293.3,337.2L293.3,337.2z M274.9,470.5c-0.8,3.7-1.4,7.3-1.8,10.9c-1.4,11.9-0.3,23.5,3.1,34.7l34.6,7.8
					c-5.7-19.7-17-38.7-35-57C275.5,468.1,275.2,469.3,274.9,470.5L274.9,470.5z M305.3,449.6c6.2,25.7,24.2,39.6,49.6,46
					C346.4,473,330.8,456.8,305.3,449.6z M329.2,379.1c19,3.9,36.2,2.9,51.8-1.9l8.1-36.1C367,347,346.9,359.3,329.2,379.1
					L329.2,379.1z"/>
			</g>
		</g>
	</mask>
	<path class="st3" d="M200.3,318.6l-61.3,96.8c-8,12.7-18.5,39-9.7,53.4c5.2,8.5,19.5,9.7,28.5,9.7h193.8c8.8,0,25.8-1.2,31-9.7
		c8.5-13.8-4.7-41.6-12.2-53.4l-60.9-96.8C273.1,341.5,236.7,295.8,200.3,318.6z"/>
</g>
<g id="Layer_1">
</g>
</svg>
