<?xml version="1.0" encoding="utf-8"?>
<!-- Generator: Adobe Illustrator 24.1.3, SVG Export Plug-In . SVG Version: 6.00 Build 0)  -->
<svg version="1.1" id="Layer_1" xmlns="http://www.w3.org/2000/svg" xmlns:xlink="http://www.w3.org/1999/xlink" x="0px" y="0px"
	 viewBox="0 0 512 512" style="enable-background:new 0 0 512 512;" xml:space="preserve">
<style type="text/css">
	.st0{fill:#FFFFFF;}
</style>
<g>
	<g transform="translate(0.000000,512.000000) scale(0.100000,-0.100000)">
		<path class="st0" d="M2136.9,4973.7c-85.2-41.2-199.4-85.3-199.4-85.3c-133.2-67.1-334.7-197.6-465.9-324.9
			c-320.6-310.7-494.3-687.6-530.7-1150.2c-5.9-77.9-19.7-118.3-202.2-593.8l-196.3-510v-88.8c0-98.7,9.8-131.2,46.4-148
			c13.8-7,87.8-10.9,185.5-10.9H936l2.9-367c3.9-356.1,4.9-369.9,26.6-431.1c61.2-165.7,191.3-294.9,362-358.1
			c52.3-18.8,81.9-21.7,306.8-25.7l249.5-4V443V10h78.9h78.9v434v434h78.9h78.9V956v78.9l-407.4,2.9c-453.8,3.9-449.8,2.9-544.5,75
			c-27.6,20.8-66.1,61.2-85.8,90.8c-63.1,92.7-67.1,123.3-67.1,559.3c0,262.4-4,394.6-10.9,410.4c-17.7,40.4-48.3,46.4-221,46.4
			H700.1v33.5c0,20.8,77.9,238.7,196.3,545.6l195.3,511l5.9,108.5c4,60.2,15.8,156.8,26.6,215c92.7,480.4,398.5,883.9,833.5,1100.9
			c138.1,69,256.5,109.5,411.4,141.1c97.7,19.7,141.1,22.7,343.3,22.7s245.6-2.9,343.3-22.7c492.3-99.6,890.8-400.5,1106.8-835.6
			c68.1-138.1,109.5-257.5,140.1-411.4c32.6-158.8,31.6-476.5,0-662.9c-43.4-252.5-99.6-441-270.3-913.4
			c-153.9-426.1-222-682.6-244.7-922.4c-4.9-59.2-9.9-336.4-9.9-613.6v-506h77.9h78.9l4,580c4,628.3,3,611.6,66.1,860.2
			c35.5,140.1,78.9,272.2,205.2,621.4c192.4,534.7,257.5,808.9,274.2,1159.1c32.6,701.3-357.1,1351.4-994.4,1657.2
			c-179.5,85.8-363,139.1-560.3,161.8c-110.5,12.8-562.5,30.6-773.9-67.2L2136.9,4973.7z"/>
		<g transform="translate(0,0)">
			<path class="st0" d="M2060.6,4444.6c-71.1-77.6-130.8-168.5-177.3-269.1l487.8-457.8l-52.9-56.4l-466.8,438.1
				c-38-100.4-63.6-208.8-75.1-322.1l480.6-243l-34.9-69l-451.6,228.3c-4-101.2,3.2-205.5,22.5-311l415.9-34.4l-6.3-77.1
				l-392.9,32.5c3.1-12.8,6.3-25.6,9.7-38.4c18.3-68.3,41.1-133.8,67.8-196.3c36.2,6.7,73.7,13.5,115.1,21.3
				c110.7,20.8,219.7,41.6,219.7,41.6l14.5-75.9c0,0-109.1-20.9-219.9-41.8c-33.1-6.2-65.4-12.3-95.9-18
				c35.8-72.4,77-140.2,122.7-202.7l251.7,141.8l37.9-67.4l-241.7-136.3c50.5-61.2,105.4-116.6,163.9-165.5l71,84.2
				c5.7,85,20.5,156.1,59.5,214c26.2,39,63.9,69.6,112.4,90.8c-34.2,53.1-61.3,113-79.1,179.3c-60.1,224,2.4,448.9,150.6,571.4
				L2060.6,4444.6L2060.6,4444.6z M3429.5,4444.6l-508.8-738.7c148.2-122.5,210.9-347.3,150.8-571.4
				c-17.6-65.7-44.6-125.1-78.4-177.8c51.1-22.3,89.2-55.9,113.8-97.9c32.3-55.2,43.4-120.5,47.2-196.4l81.1-96.2
				c58.5,48.9,113.5,104.3,163.9,165.5l-241.8,136.3l38,67.4l251.7-141.8c45.7,62.5,86.9,130.3,122.7,202.7
				c-30.6,5.7-62.9,11.7-96.1,18c-110.8,20.9-219.9,41.8-219.9,41.8l14.5,75.9c0,0,109.1-20.8,219.8-41.6
				c40.5-7.6,79.4-14.9,115.1-21.5c26.6,62.5,49.4,128.1,67.8,196.4c3.4,12.8,6.6,25.6,9.7,38.4l-392.9-32.4l-6.3,77.1l415.9,34.4
				c19.3,105.5,26.4,209.8,22.4,311L3268,3465.3l-34.9,69l480.7,242.9c-11.5,113.4-37.1,221.8-75.1,322.2l-466.8-438.2l-53,56.4
				l487.8,457.8C3560.3,4276.1,3500.5,4367,3429.5,4444.6L3429.5,4444.6z M2737.8,3364.4c-43.2,0-83.5-22.1-114.9-62.6
				c-31.5-40.5-52.4-98.9-52.4-164.2s20.9-123.7,52.4-164.2c31.5-40.5,71.7-62.7,114.9-62.7s83.3,22.2,114.8,62.7
				c31.5,40.5,52.4,98.9,52.4,164.2c0,65.3-20.9,123.7-52.4,164.2C2821.1,3342.3,2781,3364.4,2737.8,3364.4L2737.8,3364.4z
				 M2901.7,2904.4c-42.9-46.1-100.3-75.9-164-75.9c-61.9,0-117.9,28.1-160.3,72c-11-2.7-21.3-5.7-30.8-9.1
				c-47.4-16.6-76.1-39.1-97-70.2c-38-56.5-47.8-153.3-49.3-286.5h677.8c-0.6,130.5-4.8,228.3-38,285.1
				c-18.3,31.2-43.8,53.6-89.2,70.6C2936.6,2895.8,2920.2,2900.5,2901.7,2904.4L2901.7,2904.4z"/>
		</g>
	</g>
</g>
</svg>
