<?xml version="1.0" encoding="utf-8"?>
<!-- Generator: Adobe Illustrator 24.1.3, SVG Export Plug-In . SVG Version: 6.00 Build 0)  -->
<svg version="1.1" xmlns="http://www.w3.org/2000/svg" xmlns:xlink="http://www.w3.org/1999/xlink" x="0px" y="0px"
	 viewBox="0 0 512 512" style="enable-background:new 0 0 512 512;" xml:space="preserve">
<style type="text/css">
	.st0{filter:url(#Adobe_OpacityMaskFilter);}
	.st1{fill:#FFFFFF;}
	.st2{mask:url(#SVGID_1_);fill:#FFFFFF;}
</style>
<g id="Layer_1">
	<defs>
		<filter id="Adobe_OpacityMaskFilter" filterUnits="userSpaceOnUse" x="43.8" y="20.3" width="443.1" height="456.4">
			
				<feColorMatrix  type="matrix" values="-1 0 0 0 1  0 -1 0 0 1  0 0 -1 0 1  0 0 0 1 0" color-interpolation-filters="sRGB" result="source"/>
			<feFlood  style="flood-color:white;flood-opacity:1" result="back"/>
			<feBlend  in="source" in2="back" mode="normal"/>
		</filter>
	</defs>
	<mask maskUnits="userSpaceOnUse" x="43.8" y="20.3" width="443.1" height="456.4" id="SVGID_1_">
		<g class="st0">
			<path id="path1910" class="st1" d="M247.6,338.9c-10.3-2.1-10.3-2.1-12.7-12.2c-2.7-11.5-6-29.3-6-33c0-3.8,2.7-6.8,9.6-10.4
				c3-1.6,5.4-3.4,5.2-4.1c-0.2-0.7-1.9-1.4-4.3-1.7l-3.9-0.6l-2-6.6l-2-6.6l10.7,0.5c10.1,0.5,10.7,0.4,11-1.5
				c0.2-1.1,0.8-4.5,1.3-7.5c0.6-3,1.6-8.9,2.3-13.2s1.9-10.2,2.6-13.2s1.5-6,1.6-6.8c0.1-0.8,0.7-3,1.4-5c1.3-4,1.3-3.9,4.5-14.9
				c3.9-13.5,6.9-19.7,20.7-42.7c8.8-14.6,15.9-24.7,22.6-31.9c2.5-2.7,8.1-9.5,12.4-15c4.3-5.5,8-9.8,8.3-9.5
				c0.3,0.3,0.1,3.5-0.5,7.2c-0.6,3.7-0.7,7.6-0.2,8.6c0.6,1.2,1.5-1.8,2.7-8.6c1.7-9.9,2.1-10.8,6.6-14.9c2.6-2.4,7.8-6.2,11.7-8.4
				c7.8-4.5,13.3-8,18.6-12.2c6.3-4.9,7-3.4,4.2,8.2c-0.9,3.7-1.9,9-2.3,11.8s-1.9,10.9-3.5,18.2c-3.5,16-4.3,20.1-6.3,29.5
				c-1.5,7.4-3,10.8-5.4,12.2c-0.7,0.4-6.3,2.4-12.3,4.4c-6,2-12.4,4.4-14.1,5.3c-5.6,3.1-4.1,5.1,1.6,2.2c5.1-2.5,23.4-8,24.3-7.3
				c1.3,1.1-3.6,11.7-17.2,37.6c-2.1,3.9-5.7,10.9-8.1,15.5c-4.5,8.8-7.7,12.3-10.9,12.1c-1-0.1-2.9,0.4-4.2,1l-2.3,1.1l4.3,0.4
				c2.4,0.2,4.4,0.7,4.5,1.2c0.2,0.7-3.2,4.6-10.7,12c-6.4,6.4-19,13.1-33.5,18.1c-2.3,0.8-6.3,2.6-8.8,4.1l-4.6,2.7l6.4,0.9
				l6.4,0.9l2,6.6l2,6.6l-3.3,0c-3.3,0-3.8,1.6-1.1,3.5c0.8,0.5,3.7,1.9,6.4,3c3.1,1.3,7.1,3.8,10.4,6.7c5.1,4.4,5.6,5.1,9.8,14.2
				c2.5,5.2,6.4,14.9,8.7,21.6l4.3,12l-2.1,0.8C308.6,344.2,263.5,342.1,247.6,338.9z"/>
		</g>
	</mask>
	<path class="st2" d="M112.4,20.3l88.9,341.4l285.6,23L398,43.3L112.4,20.3z M93.8,21.9c-30.1,11.7-55,52.4-49.1,74.4l3.2,11.6
		c0.7-1.7,1.3-3.5,2.1-5.2c9.8-23.4,26.2-46.2,49.7-58.2L93.8,21.9z M104.5,62.9C88,72.8,74.9,90.6,67,109.7
		c-5.2,12.4-7.9,25.3-8.6,36.1l64,232.3c0.3-0.5,0.6-1.1,0.9-1.6c10.5-19,27.5-37.2,50.5-47.9L104.5,62.9L104.5,62.9z M178.4,346.9
		c-17.5,9-30.8,23.4-39.1,38.5c-4.4,8-7.2,16.2-8.6,23.5l11.5,41.9l1.6,0.1c-3.8-27.2,11.2-59.7,40.7-80.1L178.4,346.9L178.4,346.9z
		 M204.4,380.5c-32.2,17.1-45.9,51.8-41.3,72l286.2,24.2c-5.3-7.7-8.6-17.7-8.5-28.1l-22.1-8.9l45.8-7.2l-13.3-12.7
		c5.5-6.8,13.5-12.9,24.5-17.5L204.4,380.5L204.4,380.5z"/>
</g>
<g id="Layer_2">
</g>
</svg>
