<?xml version="1.0" encoding="utf-8"?>
<!-- Generator: Adobe Illustrator 24.1.3, SVG Export Plug-In . SVG Version: 6.00 Build 0)  -->
<svg version="1.1" xmlns="http://www.w3.org/2000/svg" xmlns:xlink="http://www.w3.org/1999/xlink" x="0px" y="0px"
	 viewBox="0 0 512 512" style="enable-background:new 0 0 512 512;" xml:space="preserve">
<style type="text/css">
	.st0{filter:url(#Adobe_OpacityMaskFilter);}
	.st1{fill-rule:evenodd;clip-rule:evenodd;fill:#FFFFFF;}
	.st2{fill:#FFFFFF;}
	.st3{mask:url(#SVGID_1_);fill:#FFFFFF;}
</style>
<g id="Layer_1">
	<defs>
		<filter id="Adobe_OpacityMaskFilter" filterUnits="userSpaceOnUse" x="43.8" y="20.3" width="443.1" height="456.4">
			
				<feColorMatrix  type="matrix" values="-1 0 0 0 1  0 -1 0 0 1  0 0 -1 0 1  0 0 0 1 0" color-interpolation-filters="sRGB" result="source"/>
			<feFlood  style="flood-color:white;flood-opacity:1" result="back"/>
			<feBlend  in="source" in2="back" mode="normal"/>
		</filter>
	</defs>
	<mask maskUnits="userSpaceOnUse" x="43.8" y="20.3" width="443.1" height="456.4" id="SVGID_1_">
		<g class="st0">
			<g>
				<path class="st1" d="M334.8,257.4c7.2-0.7,16.3,16.3,5.3,16.8C333,274.9,323.9,258,334.8,257.4z M347.3,306.3
					c4.3-0.4,9.8,9.8,3.2,10.1C346.2,316.8,340.8,306.7,347.3,306.3z M310.6,275c5.8-0.6,13,13,4.3,13.4
					C309.1,289,301.8,275.5,310.6,275z M290.5,236.4c-2.1,22-23.1,65.1-7.2,86.2c6.7,11.8,100.6,9.4,112.5,12.4
					c47.1,5-45.9-84.2-50.9-95.3C331,252,304.4,224,290.5,236.4z"/>
				<path class="st2" d="M302.9,174.3c8.7-0.8,19.6,19.5,6.4,20.1C300.6,195.3,289.7,175,302.9,174.3z"/>
				<path class="st2" d="M268.5,51.7c4.3-0.4,9.8,9.8,3.2,10.1C267.3,62.2,261.9,52.1,268.5,51.7z"/>
				<path class="st2" d="M289.6,125.4c4.3-0.4,9.8,9.8,3.2,10.1C288.5,135.9,283,125.7,289.6,125.4z"/>
				<path class="st2" d="M259.4,77.5c3.2,0.2,6.8,3.4,8,7.1c2.4,10.3-10.3,6.3-11.7-0.7C254.5,80.1,256.1,77.3,259.4,77.5z"/>
				<path class="st2" d="M283.6,147.5c3.2,0.2,6.8,3.4,8,7.1c2.4,10.3-10.3,6.3-11.7-0.7C278.7,150.1,280.4,147.3,283.6,147.5z"/>
				<path class="st2" d="M300.2,210.1c3.2,0.2,6.8,3.4,8,7.1c2.4,10.3-10.3,6.3-11.7-0.7C295.3,212.8,297,209.9,300.2,210.1z"/>
				<path class="st1" d="M246,101.9l58.6,3.5c5.8-0.5,13,13,4.3,13.4c31.8,100.1,26.5,85.7,96,169.9c28,33.8,34.9,68.6-2.8,66.3
					c-56.1-7.5-156.3,14.7-142.4-75.1c17.7-78.6,22.2-65.1-9.4-164.6C244.5,115.9,237.3,102.4,246,101.9z M259.1,115.9
					c9.1,30.6,22,62.3,23.8,93.8c3,39.1-30.6,83.2-5.6,117.5c7.2,8.9,17,11.5,25.1,11.9L399,345c8.1,0.5,17.8-0.8,19.6-9.3
					c2.2-33.2-65.9-88.2-82.8-122.7c-17.1-29.9-25-62.7-35.6-94.7L259.1,115.9L259.1,115.9z"/>
			</g>
		</g>
	</mask>
	<path class="st3" d="M112.4,20.3l88.9,341.4l285.6,23L398,43.3L112.4,20.3z M93.8,21.9c-30.1,11.7-55,52.4-49.1,74.4l3.2,11.6
		c0.7-1.7,1.3-3.5,2.1-5.2c9.8-23.4,26.2-46.2,49.7-58.2L93.8,21.9z M104.5,62.9C88,72.8,74.9,90.6,67,109.7
		c-5.2,12.4-7.9,25.3-8.6,36.1l64,232.3c0.3-0.5,0.6-1.1,0.9-1.6c10.5-19,27.5-37.2,50.5-47.9L104.5,62.9L104.5,62.9z M178.4,346.9
		c-17.5,9-30.8,23.4-39.1,38.5c-4.4,8-7.2,16.2-8.6,23.5l11.5,41.9l1.6,0.1c-3.8-27.2,11.2-59.7,40.7-80.1L178.4,346.9L178.4,346.9z
		 M204.4,380.5c-32.2,17.1-45.9,51.8-41.3,72l286.2,24.2c-5.3-7.7-8.6-17.7-8.5-28.1l-22.1-8.9l45.8-7.2l-13.3-12.7
		c5.5-6.8,13.5-12.9,24.5-17.5L204.4,380.5L204.4,380.5z"/>
</g>
<g id="Layer_2">
</g>
</svg>
