<?xml version="1.0" encoding="utf-8"?>
<!-- Generator: Adobe Illustrator 24.1.3, SVG Export Plug-In . SVG Version: 6.00 Build 0)  -->
<svg version="1.1" xmlns="http://www.w3.org/2000/svg" xmlns:xlink="http://www.w3.org/1999/xlink" x="0px" y="0px"
	 viewBox="0 0 512 512" style="enable-background:new 0 0 512 512;" xml:space="preserve">
<style type="text/css">
	.st0{filter:url(#Adobe_OpacityMaskFilter);}
	.st1{fill:#FFFFFF;}
	.st2{mask:url(#SVGID_1_);}
</style>
<g id="Layer_1">
	<defs>
		<filter id="Adobe_OpacityMaskFilter" filterUnits="userSpaceOnUse" x="26.4" y="70.9" width="459.3" height="356.8">
			
				<feColorMatrix  type="matrix" values="-1 0 0 0 1  0 -1 0 0 1  0 0 -1 0 1  0 0 0 1 0" color-interpolation-filters="sRGB" result="source"/>
			<feFlood  style="flood-color:white;flood-opacity:1" result="back"/>
			<feBlend  in="source" in2="back" mode="normal"/>
		</filter>
	</defs>
	<mask maskUnits="userSpaceOnUse" x="26.4" y="70.9" width="459.3" height="356.8" id="SVGID_1_">
		<g class="st0">
			<g>
				<polygon class="st1" points="297,75.5 286.3,112.5 279.2,110.4 283.7,94.7 249.9,120 245.5,114 297,75.5 				"/>
				<polygon class="st1" points="215.5,75.9 248,99.5 243.6,105.5 230,95.6 243.8,136.7 236.7,139 215.5,75.9 				"/>
				<polygon class="st1" points="271.3,115.5 322.6,154.3 283.6,154.1 283.7,146.7 300.4,146.8 266.8,121.4 271.3,115.5 				"/>
				<polygon class="st1" points="222.7,130.4 227,136.5 212.7,146.7 254.3,146.6 254.3,154 189.4,154.1 222.7,130.4 				"/>
				<polygon class="st1" points="269.5,138.7 276.5,141 256.9,202.5 244.5,164.2 251.6,161.9 256.9,178.3 269.5,138.7 				"/>
			</g>
		</g>
	</mask>
	<g transform="translate(0,0)" class="st2">
		<path class="st1" d="M45.1,70.9L27.7,202.1h39.2V70.9H45.1z M86.2,70.9v131.2h40.6V70.9H86.2z M146,70.9v131.2h60.5v-18.8h99v18.8
			H366V70.9H146z M385.2,70.9v131.2h40.6V70.9H385.2z M445.1,70.9v131.2h39.2L466.9,70.9H445.1z M225.7,202.5v112.4h60.5V202.5
			H225.7L225.7,202.5z M256,214.9c11,0,19.9,7.7,19.9,17.2c0,6.3-4,12-10.3,15.1v39.7h-19.2v-39.7c-6.4-3-10.3-8.8-10.3-15.1
			C236.1,222.6,245,214.9,256,214.9L256,214.9z M26.4,221.3v136.6L47,377.4V221.3H26.4z M66.2,221.3v168.8h379.5V221.3H305.5v112.8
			h-99V221.3H66.2z M465,221.3v156.1l20.7-19.5V221.3H465z M26.4,384.4v43.3h45.9L26.4,384.4L26.4,384.4z M485.6,384.4l-45.9,43.3
			h45.9V384.4L485.6,384.4z M80.8,409.3l19.5,18.4h311.4l19.5-18.4H80.8z"/>
	</g>
</g>
<g id="Layer_2">
</g>
</svg>
