<?xml version="1.0" encoding="utf-8"?>
<!-- Generator: Adobe Illustrator 24.1.3, SVG Export Plug-In . SVG Version: 6.00 Build 0)  -->
<svg version="1.1" xmlns="http://www.w3.org/2000/svg" xmlns:xlink="http://www.w3.org/1999/xlink" x="0px" y="0px"
	 viewBox="0 0 512 512" style="enable-background:new 0 0 512 512;" xml:space="preserve">
<style type="text/css">
	.st0{fill-opacity:0;}
	.st1{fill:#FFFFFF;}
</style>
<g id="Layer_1">
	<path class="st0" d="M0,0h512v512H0V0z"/>
	<g transform="translate(0,0)">
		<path class="st1" d="M252,9.7c-19.6,2.5-37.3,25.6-37.3,55.4c0,16.4,5.7,31,14,41l10.2,12.2l-15.6,2.9c-10.8,2-18.7,7.7-25.5,17.1
			c-6.8,9.3-12,22.3-15.6,37.3c-6.6,27.1-8.1,60.2-8.3,89.5h36.1l0.7,8.7l9.1,122.6h76.2l8.1-122.5l0.6-8.7h34.4
			c0-29.6-0.4-63.2-6.4-90.5c-3.3-15.1-8.3-28.1-15.2-37.3c-6.9-9.2-15.1-14.9-27.3-16.8l-15.9-2.5l10.1-12.6
			c8-10,13.4-24.4,13.4-40.4c0-31.8-19.9-55.3-41.4-55.3C253.5,9.8,252.1,9.7,252,9.7L252,9.7L252,9.7z"/>
	</g>
</g>
<g id="Layer_2">
	<g id="g3074" transform="matrix(1.1420287,0,0,1.1420287,-54.210052,-119.65049)">
		<path id="path14" class="st1" d="M80.5,141.2c-0.1,0.5-0.7,3.1-1.2,5.8c-0.5,2.7-1.3,6.4-1.7,8.3c-4.5,19.7-5.1,34.4-1.7,44.8
			c2.6,8.1,4,11.1,5.1,11.1c1.4,0.1,7-10.5,9.3-17.5c3.7-10.9,3.8-11.9,3.8-22.2c0.1-10.4-0.1-10.9-3.8-19.7
			c-1.1-2.6-3.1-5.6-5.1-7.8C81.9,140.4,80.8,139.8,80.5,141.2L80.5,141.2z"/>
		<path id="path16" class="st1" d="M459,143.2c-4.4,4.8-6.6,8.7-8.5,15.2c-1.7,5.6-1.8,19.9-0.2,26c2.9,11.6,10.1,27.1,12.3,26.6
			c0.8-0.1,3.1-4.8,4.6-9.1c1.3-3.8,2.9-14.2,2.9-18.5c0-5.1-1.7-16.4-4.3-28.5c-0.4-2-1.3-6-1.8-8.9c-0.6-2.9-1.3-5.4-1.7-5.5
			C461.9,140.5,460.5,141.7,459,143.2L459,143.2z"/>
		<path id="path18" class="st1" d="M53,189.9c-0.6,0.7-0.4,8.3,0.2,12.2c0.3,2,0.9,6,1.1,8.9c1.3,13.3,4.6,27.1,8.8,36.8
			c3.3,7.5,10.8,16.5,13.9,16.6c1.1,0,1.3-0.5,1.7-4.5c0.9-10.2-0.4-27.1-3-37.9c-3.5-14.5-10.1-26-16.9-29.7
			C54.8,190.1,53.3,189.5,53,189.9z"/>
		<path id="path20" class="st1" d="M487.8,190.5c-5,1.9-10.5,7.5-13.9,14.1c-6.8,13.2-10.5,35-9.3,53.7c0.5,6.8,1,7.3,4.5,4.5
			c8.2-6.6,13.3-17,17.2-34.6c1.6-7.2,2.7-13.9,2.7-15.9c0-1.1,0.4-4.3,0.9-7.2c0.5-2.8,0.9-7.4,0.9-10.1
			C490.6,189.8,490.4,189.5,487.8,190.5L487.8,190.5z"/>
		<path id="path22" class="st1" d="M105.6,222.3C98,233.3,91.1,249,88,261.6c-2.4,9.7-2.7,11.9-2.7,20.6c0,11.3,1.1,15.6,5.7,22.4
			c1.8,2.7,2,2.8,2.7,1.7c0.8-1.3,9.9-22.6,11.5-26.8c0.5-1.3,1.2-3.2,1.6-4.2c0.5-1.1,0.8-2.3,0.8-2.9c0-0.5,0.3-1.8,0.8-2.7
			c0.9-1.9,2-6.2,3.4-12.4c2.2-10.1,2.7-19.3,1.3-26.8c-0.8-4.6-3.5-11.9-4.4-11.9C108.4,218.6,107,220.3,105.6,222.3z"/>
		<path id="path24" class="st1" d="M433.5,220.4c-2.2,3.9-4.2,13.1-4.2,19.4c0.1,6.4,2.1,18.9,3.8,23.7c0.5,1.2,0.8,2.6,0.8,3.1
			c0,0.5,0.3,1.9,0.8,3.1c0.5,1.2,1.4,3.8,2.1,5.8c3.4,9.9,12.6,31.1,13.5,31.1c1.5,0,5.1-6.2,6.8-11.8c0.9-2.8,1.1-5.5,1-12.4
			c0-9.4-0.7-14-3.4-23.1c-0.8-2.6-1.6-5.6-1.9-6.6c-2.1-7.7-15.9-34.1-18-34.1C434.7,218.6,434.1,219.4,433.5,220.4L433.5,220.4z"
			/>
		<path id="path26" class="st1" d="M47.8,241c-0.7,0.7-0.3,13.7,0.6,20.6c1.1,8.9,2.4,16.8,3.4,20.6c1.5,5.8,3.1,11.3,3.6,12.4
			c2.6,5.9,3.4,7.7,5.6,11.5c2.6,4.5,11.3,14.7,13.6,15.8c0.7,0.4,2.3,1.5,3.7,2.4c3.5,2.4,4.2,1.9,3.8-2.8
			c-1-11.4-4.9-31.5-8.1-40.9c-0.5-1.5-1.3-3.8-1.8-5.3c-1-3.1-2.7-7.4-3.7-9.3c-4-7.7-6.4-11.3-9.8-15.5
			C54.7,245.7,48.5,240.2,47.8,241L47.8,241z"/>
		<path id="path28" class="st1" d="M491.2,243.9c-5.1,4.4-7.6,7.3-11.2,12.8c-7.2,11-12.5,26.4-16,46c-1.3,7.2-2.5,15.7-2.9,19.4
			c-0.4,4.2,0.3,4.4,4.6,1.7c6.9-4.4,13.8-12.3,18.3-20.8c1.2-2.3,4.8-10.9,4.8-11.6c0-0.3,0.3-1.6,0.8-2.8
			c1.8-4.8,3.7-14.3,5.2-26.2c0.9-7,1.2-21.1,0.5-21.6C495.1,240.7,493.3,242.1,491.2,243.9L491.2,243.9z"/>
		<path id="path30" class="st1" d="M108.5,293c-0.5,1.3-0.9,3.1-0.9,4.1c0,0.9-0.5,3.6-1,5.8c-1.4,6.2-1.4,35.8,0,42.8
			c2.5,11.9,3.7,15.8,7.3,24.5c3.4,8.5,10.7,21.2,12.1,21.2c1.3,0,2.9-5.2,4-12.9c0.2-1.9,0.7-4.6,1.2-6.3c1.1-4.8,1-30.3-0.3-35.8
			c-2.9-12.9-5.8-21.5-9.5-28.1c-0.6-1.1-1.4-2.6-1.7-3.3c-0.9-2.2-8.9-13.8-9.7-14.1C109.6,290.8,108.9,291.7,108.5,293L108.5,293z
			"/>
		<path id="path32" class="st1" d="M429.5,295.9c-3.4,5-8.2,13.4-9.3,16.4c-0.3,0.7-0.7,1.9-1,2.4c-2.1,4-4.8,13.3-6.7,22.4
			c-1.2,6-1.4,29.6-0.2,34.5c0.4,1.7,0.9,4.6,1.2,6.6c0.8,6.1,2.5,12.1,3.5,12.8c0.8,0.5,1.2,0.4,1.9-0.6c1.1-1.7,6.1-10.2,6.9-11.9
			c1.5-3,6.5-14.8,6.5-15.5c0-0.4,0.3-1.7,0.8-2.8c4.2-11.4,6-29.6,4.7-46.6c-0.5-5.8-1.1-11.7-1.4-12.9c-0.3-1.3-0.6-3.2-0.6-4.3
			c0-2.2-1.1-5-2.1-5.4C433.3,290.8,431.4,293,429.5,295.9L429.5,295.9z"/>
		<path id="path34" class="st1" d="M47.8,316.4c-0.5,0.9,1.9,9.8,4.4,16c4.1,10.4,12.8,20.5,24.3,28.1c2.5,1.7,4.9,3.3,5.3,3.6
			c3.7,2.5,22.7,13.2,23.5,13.2c1,0,1.1-0.3,0.8-2.5c-0.6-4.3-2.1-9.1-4.7-15.7c-4.2-10.7-13.3-20.9-26.2-29.9
			c-3-2.1-13.5-7.7-18.6-10.1c-1.7-0.7-3.9-1.9-4.8-2.4C50.1,315.8,48.3,315.7,47.8,316.4z"/>
		<path id="path36" class="st1" d="M491.2,317c-1.1,0.6-2.9,1.5-3.8,1.9c-4.2,2.1-6,2.9-7.8,3.8c-2.7,1.4-9.7,5.5-11.9,7
			c-1.1,0.8-2.3,1.6-2.8,1.9c-0.8,0.4-2.6,1.9-7.7,6.3c-3.1,2.8-10,11.2-12,14.8c-2.2,4.1-6,13.2-6,14.5c0,0.5-0.4,2-0.9,3.2
			c-1.1,3.1-1.1,7.1-0.1,7.1c0.7,0,21.7-12.1,26.7-15.3c10.5-6.9,19.8-16.6,24.4-25.4c2.9-5.4,6.9-18.8,6.2-20.2
			C495,315.7,493.5,315.9,491.2,317L491.2,317z"/>
		<path id="path38" class="st1" d="M61,368.2c-0.3,0.6,0.2,2.8,0.7,3.4c0.2,0.2,1,1.4,1.8,2.6c7,11.6,20.6,26.4,30.1,32.8
			c1.5,1.1,3.4,2.3,4,2.7c0.6,0.5,1.7,1.1,2.5,1.5c0.7,0.3,2.6,1.3,4.3,2.2c8.4,4.4,16.3,6.8,27.3,8.4c6.2,0.9,6.3,0.9,6.3-0.3
			c0-1.3-6-11.8-10-17.5c-4.5-6.4-16.6-19.1-19.8-20.7c-0.5-0.3-1.6-1.1-2.6-1.8c-2.5-1.8-8.4-5.4-10-6c-0.8-0.3-2.8-1.2-4.5-1.9
			c-4.7-2.1-11.7-3.8-18.4-4.7C62,367.6,61.3,367.5,61,368.2z"/>
		<path id="path40" class="st1" d="M478,368c-16.3,1.7-23.9,3.9-34.6,10c-8.2,4.7-13.6,9.1-20.4,17c-8.1,9.2-18.8,25.8-17.5,27.3
			c0.5,0.5,10.5-0.9,15.6-2.1c9-2.2,14.2-4.3,22.6-9.2c3.8-2.2,11.8-7.9,12.6-8.9c0.2-0.2,1.4-1.4,2.9-2.6
			c6.1-5.3,13.7-14.5,19.4-23.2c4.4-6.8,4.8-7.7,3.7-8.2c-0.5-0.2-1.2-0.3-1.5-0.3C480.3,367.7,479.1,367.9,478,368L478,368z"/>
		<path id="path42" class="st1" d="M138.9,370.7c-1.1,1.3,1.3,18.1,3.7,26.4c0.3,1.1,0.9,2.8,1.1,4c1,4.2,4.2,13.3,5.7,16.2
			c0.3,0.5,1.1,2.4,1.9,4.1c1.8,3.9,5.2,10,6.2,11.2c0.4,0.5,1.9,2.6,3.3,4.6c5.1,7.2,12.4,14.8,19.5,20.1c3.4,2.6,4.5,3,4.6,1.6
			c0.7-9.1-2.4-28.1-6.4-39.2c-1.3-3.6-4.6-11.2-5.7-13.2c-0.6-1.1-1.3-2.5-1.5-3c-0.9-2.4-5.9-9.3-10.1-14.3
			c-4.2-4.9-13.5-13.5-14.4-13.5c-0.2,0-0.9-0.4-1.3-0.9C143.9,373.1,139.2,370.3,138.9,370.7L138.9,370.7z"/>
		<path id="path44" class="st1" d="M402.2,371.6c-0.9,0.7-2.1,1.5-2.6,1.7c-0.5,0.3-2,1.3-3.4,2.5c-9.4,7.2-18.9,17.9-23.8,26.9
			c-4.6,8.4-9.2,20.2-10.5,27.1c-0.2,1.3-0.7,3.6-1,5.3c-1.7,7.8-2.4,13.8-2.4,18.8c0,3,0.2,5.6,0.3,5.9c0.9,1,12.8-9.3,18.8-16.4
			c8.5-9.9,13.9-19.3,19.4-33.8c4.6-12.1,9.3-36.8,7.4-38.7C404.1,370.6,403.1,370.9,402.2,371.6z"/>
		<path id="path46" class="st1" d="M101.6,423.3c-3.7,0.5-7.4,1.9-8.4,3.1c-0.4,0.5-1,0.8-1.3,0.8c-0.9,0-3.1,2.8-3.1,4.1
			c0,0.8,8.5,7.9,12,10c0.5,0.3,1.7,1.1,2.6,1.8c1,0.7,2.2,1.6,2.9,2c0.6,0.4,2.7,1.7,4.6,3c4.1,2.8,17.3,10.3,20.9,11.9
			c1.4,0.7,3.4,1.5,4.3,2c1,0.5,3.1,1.3,4.9,1.9c1.7,0.6,4.7,1.5,6.6,2.2c5.1,1.7,18.5,1.7,22,0c3.9-1.9,4.3-2.1,4.5-3.2
			c0.2-1.3-7.2-8.9-16.4-16.6c-1.9-1.7-3.7-3-3.8-3c-0.2,0-1.8-1.1-3.6-2.5c-3.5-2.8-4.1-3.1-10.9-7c-7.7-4.4-14.3-7.5-17.3-8.2
			c-0.8-0.2-2.6-0.7-4-1.2C114.6,423.1,106.1,422.6,101.6,423.3L101.6,423.3z"/>
		<path id="path48" class="st1" d="M430.8,423.2c-4.4,0.5-9.2,1.9-14,4c-1.7,0.7-3.8,1.6-4.6,1.9c-0.8,0.3-1.9,0.8-2.6,1.2
			c-0.6,0.4-3,1.8-5.4,3.1c-10.6,6-23,15.7-31.8,25c-3.9,4.2-3.9,5.2,0,6.9c9.2,4,25,1.8,39.5-5.4c3.6-1.9,9.8-5.1,10.6-5.6
			c0.5-0.3,2.9-1.8,5.4-3.3c2.5-1.5,5.4-3.3,6.3-4c1-0.7,2.2-1.6,2.9-2c0.6-0.4,1.9-1.3,2.9-2c1-0.7,2.1-1.5,2.6-1.8
			s2.5-1.7,4.5-3.3c2-1.6,3.7-2.8,3.9-2.8c0.2,0,1-0.7,1.9-1.5c2.5-2.1,2.2-3.8-1.1-6.4c-1.6-1.1-3.1-2.1-3.5-2.1
			c-0.3,0-1.3-0.4-2.2-0.9C444.1,423.1,436,422.5,430.8,423.2z"/>
		<path id="path50" class="st1" d="M193.8,425.5c-0.3,0.1-1.3,0.4-2.1,0.6c-2.1,0.5-2.1,2.2-0.1,5.5c0.8,1.4,1.7,3.1,2,3.8
			c0.3,0.7,1,2.2,1.7,3.3c0.6,1.1,1.4,2.6,1.7,3.3c0.3,0.7,1.1,2.2,1.7,3.3c0.6,1.1,1.4,2.6,1.7,3.3c0.3,0.7,1,2.1,1.6,3.1
			c0.5,1,2,3.6,3.2,6c5.6,10.4,14.5,22.2,21,27.9c4,3.5,9.6,6.6,14.1,7.6c4.5,1.1,6.2,0.8,6.4-1.1c0.3-2.1-1.8-9.9-4.2-16.4
			c-2.2-6-3.4-8.4-6.1-13.4c-0.9-1.6-1.6-3-1.6-3.2c0-0.2-1.9-3.2-4.2-6.8c-7.2-10.9-16.4-20.3-23.5-23.9
			C203.2,426.6,195.5,424.8,193.8,425.5L193.8,425.5z"/>
		<path id="path52" class="st1" d="M342,426.5c-6,1.8-7.7,2.8-14.3,8.4c-7.4,6.3-15.4,16.9-21.3,28.3c-1.2,2.3-6.3,14.5-7.2,17.2
			c-1.4,4.3-2.9,11.4-2.5,12.5c0.5,1.3,2.8,1.3,7.3,0.1c11-2.8,22.5-14.6,33.9-34.8c2.3-4.2,9.8-18.3,10.4-19.9
			c0.2-0.5,0.9-1.9,1.5-3c0.6-1.1,1.3-2.5,1.5-3c0.2-0.5,0.8-1.7,1.4-2.5c1.4-2.1,0.9-3.2-1.7-4.1C348.2,425,346.8,425,342,426.5
			L342,426.5z"/>
		<path id="path54" class="st1" d="M145.1,475.5c-1.9,0.3-5.2,0.9-7.4,1.3c-13.3,2.3-23.3,9.5-27,19.4c-0.4,1-0.5,1.9-0.3,2.1
			c0.8,0.5,10.9,2.5,18.7,3.5c11.5,1.7,37,1.7,43.8,0c10.9-2.6,19.1-6.6,23.9-11.9c3.2-3.6,3.6-4.7,1.9-5.7
			c-2.3-1.5-12.4-4.6-19.8-6.3C168.2,475.6,151.5,474.4,145.1,475.5L145.1,475.5z"/>
		<path id="path56" class="st1" d="M383.6,475.2c-0.5,0.1-4,0.6-7.7,1c-6.5,0.7-12.3,1.8-18,3.4c-1.4,0.4-3.5,0.9-4.6,1.2
			c-4.5,1.2-9.7,3.7-9.7,4.7c0,0.9,4.1,5.6,6.6,7.6c2.2,1.7,8.1,5,10.3,5.6c1,0.3,2.5,0.8,3.4,1.1c1,0.4,4.2,1.3,7.2,1.9
			c7.5,1.7,31.8,1.7,43.2,0c9.2-1.3,18.1-3,18.8-3.6c1.5-1.5-5.8-12.2-10.1-14.6c-1.3-0.8-2.7-1.7-3.2-1.9c-3-2-10.2-4.3-16.9-5.4
			C398,475.4,385,474.7,383.6,475.2z"/>
		<path id="path58" class="st1" d="M214.1,499.7c-7,1.4-13.1,2.9-15.7,4c-1.3,0.5-2.7,0.9-3.3,0.9c-0.6,0-1.8,0.4-2.9,0.9
			c-1,0.5-3,1.5-4.5,2.1c-18.5,8.3-31,21.5-32.3,34.4c-0.3,2.8-0.2,3.7,0.3,3.7c1.1,0,13.8-2.6,20.8-4.4c2.2-0.5,4.5-0.9,5.2-0.9
			c1.1,0,4.8-0.9,12.6-3.1c16.8-4.7,29.2-11.1,37-19.1c4.8-4.9,10.9-15.6,9.7-17C239,498.7,223.7,497.9,214.1,499.7z"/>
		<path id="path60" class="st1" d="M305.1,499.9c-1.7,0.7-3.1,1.5-3.1,1.8c0,0.4,0.8,2.5,1.7,4.6c2.1,4.7,8.3,12.6,12.6,16
			c3.3,2.5,11.9,7.8,13.8,8.5c0.6,0.2,2.9,1.1,5.1,2c3.7,1.5,5.3,2,13.5,4.7c1.8,0.6,3.7,1.1,4.3,1.1c0.6,0,2.7,0.4,4.8,0.9
			c7.6,2,12.4,3,13.6,3c0.7,0,2.9,0.4,4.9,0.9c5.4,1.5,11.9,2.6,12.1,2.3c0.4-0.5-1.1-7.5-2.1-10.1c-3.1-8.1-11.3-17.1-19.9-22.1
			c-1.4-0.8-3-1.7-3.4-2c-1.2-0.8-4.5-2.4-7.2-3.6c-1.3-0.5-3.3-1.4-4.6-2C337.4,499.9,313.6,496.8,305.1,499.9L305.1,499.9z"/>
		<path id="path62" class="st1" d="M260.8,513.3c-1.9,1.1-4.6,2.8-6.1,3.8c-8.9,6-16,15.8-16.6,23l-0.2,2l3.5,0.2
			c4.5,0.3,9.1-2.1,12.9-6.6c3.1-3.6,5.7-9.4,10.2-22.9C265.2,510.8,264.8,510.9,260.8,513.3z"/>
		<path id="path64" class="st1" d="M279.4,513.7c0.9,3.2,2.3,7.5,2.8,8.7c0.3,0.6,1.1,2.6,1.9,4.3c2.3,5.7,2.7,6.3,6.1,9.9
			c4,4.1,7.6,5.8,12.3,5.8h3.4l-0.4-2.6c-0.2-1.5-1-3.9-1.8-5.5c-0.7-1.5-1.6-3.4-1.9-4.1c-1.3-3.3-9.6-11-16.8-15.5
			C279.7,511.3,278.7,511.2,279.4,513.7L279.4,513.7z"/>
	</g>
</g>
</svg>
