<?xml version="1.0" encoding="utf-8"?>
<!-- Generator: Adobe Illustrator 25.2.1, SVG Export Plug-In . SVG Version: 6.00 Build 0)  -->
<svg version="1.1" id="Capa_1" xmlns="http://www.w3.org/2000/svg" xmlns:xlink="http://www.w3.org/1999/xlink" x="0px" y="0px"
	 viewBox="0 0 595.28 841.89" style="enable-background:new 0 0 595.28 841.89;" xml:space="preserve">
<style type="text/css">
	.st0{fill:#FFFFFF;}
</style>
<g>
	<path d="M197.71,491.46c-4.47-1.81-7.81-4.27-11.19-4.31c-9.34-0.11-17.03-3.52-24.51-8.78c-10.26-7.2-22.23-5.34-33.75-4.87
		c-6.41,0.26-12.78,1.32-19.06,2.01c1.76,6.44,6.04,10.12,13.61,8.82c17.11-2.96,29.34,5.36,40.5,16.4
		c4.02,3.98,7.24,8.68,3.85,15.82c-1.43-1.84-2.58-3.17-3.57-4.61c-9.3-13.51-21.79-20.06-38.53-20.26
		c-16.1-0.19-30.7-5.74-40.08-19.85c-10.97-16.51-11.34-34.33-3.68-52.21c1.58-3.68,2.58-6.4,0.72-10.12
		c-5.31-10.67-5.98-22.07-5.48-33.79c0.11-2.69,3.33-7.7-2.04-8.65c0.77-4.23,2.16-8.42,2.2-12.62c0.15-18.68-1.23-37.26-3.38-55.85
		c-1.02-8.79,1.57-17.94,1.7-26.93c0.24-17.56,4.43-34.08,12.59-49.47c9.46-17.85,21.3-33.54,40.66-42.07
		c2.6-1.15,4.69-4.53,6.01-7.34c7.19-15.35,19.23-24.79,34.75-30.99c11.44-4.57,23.09-7.47,35.2-9.15
		c6.87-0.95,13.65-2.52,20.46-3.85c4.62-0.9,9.51-2.87,11.33,4.75c11.77-11.27,24.68-14.16,39.37-13.86
		c14.15,0.28,28.34-2.27,42.54-2.82c23.22-0.89,44.6,5.21,63.62,18.77c3.66,2.61,6.88,4.86,11.8,3.27c1.89-0.61,4.52,0.42,6.61,1.22
		c22.16,8.47,41.86,20.95,60.44,35.68c14.7,11.66,27.69,24.78,37.43,40.62c9.24,15.01,16.41,31.27,16.76,49.35
		c0.26,13.2-0.15,26.47-1.24,39.63c-2.09,25.21-4.87,50.36-7.38,75.54c-0.39,3.95-1.19,7.9-1.23,11.85c-0.06,5.54-2.42,8.68-8.69,9
		c0.38,7.43,0.41,14.55,1.32,21.57c0.28,2.17,2.65,4.42,4.6,5.94c2.29,1.79,5.17,2.85,8,4.32c-0.12,14.42,1.84,28.8-5.72,41.9
		c-1.43,2.48-3,5.44-5.31,6.74c-7.48,4.21-15.14,8.25-23.13,11.34c-4.66,1.8-7.92,4.46-10.72,8.29c-1.54,2.11-3.15,4.47-5.31,5.76
		c-9.02,5.4-13.25,14.47-18.35,22.93c-2.89,4.8-5.74,9.64-8.99,14.2c-0.94,1.32-3.18,1.72-6.23,3.24
		c3.97-10.56,7.56-19.56,10.72-28.7c1.9-5.49,5.31-8.73,10.75-10.77c5.46-2.05,10.54-5.12,15.78-7.74c-0.25-0.65-0.5-1.31-0.75-1.96
		c-6.38,2.1-12.75,4.19-20.01,6.58c-0.58-3.36-1.05-6.11-1.57-9.08c-0.83,0.15-1.82,0.1-2.59,0.49c-3.84,1.99-7.89,3.71-11.37,6.22
		c-10.25,7.39-16.74,16.61-14.17,30.25c1.14,6.05,1.27,12.29,1.89,18.74c-7.92,10.21-20.24,5.04-31.57,6.63
		c3.65,10.37,10.12,20.09-2.46,28.68c-2.48-6.09-4.55-11.17-7.29-17.9c-0.39,7.11-0.43,12.44-1.1,17.7c-0.27,2.14-1.49,4.51-3,6.08
		c-4.17,4.34-10.58,2.88-12.42-2.93c-1.86-5.88-3.05-11.96-6.16-18.02c-0.81,5.6-1.65,11.19-2.42,16.8
		c-0.22,1.61,0.38,3.66-0.41,4.81c-4,5.83-10.47,1.75-15.68,3.38c-2.97,0.92-5.26-2.18-5.5-5.7c-0.56-8.27-1.24-16.53-1.68-24.8
		c-0.27-4.99-1.96-8.1-8.46-7.51c1.86,12.07,3.63,23.61,5.52,35.9c-5.26,0.64-10.64,1.82-16.01,1.81c-4.94-0.01-7.16-4.28-9.04-8.25
		c-3.76-7.95-7.42-15.95-11.87-23.9c-1.72,10.68-0.46,21.89-8.28,31.62c-4.13,0.47-9.33,1.3-14.55,1.59
		c-5.54,0.31-7.12-1.27-7.25-6.78c-0.14-5.52-0.03-11.04-0.03-16.56c-0.67-0.03-1.34-0.06-2.02-0.09c-0.29,2.67-0.54,5.34-0.87,8
		c-1.48,12.11-7.14,15.97-18.84,12.87c-2.22-0.59-4.43-1.26-6.93-1.97c-2.21-9.73,4.64-17.99,3.59-28.75
		c-4.12,2.69-7.77,3.63-7.84,9.72c-0.08,7.42-1.73,14.82-2.77,22.78c-8.25-1.68-15.21-4.71-16.93-11.82
		c-1.48-6.1,0.45-13.02,0.9-20.09c-2.61,1.1-5.2,2.2-7.9,3.34c0,4.22,0,8.14,0,12.06c0,3.9,0,7.8,0,11.89
		c-11.92-7.73-12.39-9.97-5.32-27.95c-9.98-3.76-20-7.54-29.66-11.19c-2.28-10.37-2.28-10.37,6.53-27.34
		c1.81,2.29,3.35,4.3,4.96,6.24c1.45,1.75,2.99,3.42,5.16,5.88c3.6-8.19,6.88-15.62,10.12-23.06
		C190.73,507.63,194,500.03,197.71,491.46z M460.01,438.84c-2.81-4.34-6.5-1.69-9.85-1.15c-9.29,1.5-18.47,4.76-28,1.12
		c-0.93-0.36-2.27,0.38-4.27,0.77c1.58,1.18,2.27,1.81,3.06,2.27c10.1,5.81,20.95,4.37,31.59,2.61c2.67-0.44,4.85-3.81,7.26-5.84
		c3.91-1.52,3.91-1.52,3.51-5.55C462.21,434.99,461.11,436.91,460.01,438.84z M426.69,428.25c13.13,1.29,22.39-3.31,25.38-17.48
		c0.51-2.41,2.77-4.45,4.21-6.67c2.35-3.61,5.05-7.06,6.97-10.88c4.55-9.06,6.24-18.8,0.08-27.44
		c-9.6-13.46-20.47-26.03-34.24-35.47c-5.3-3.63-11.67-7.34-18.44-4.15c-9.86,4.64-19.7,4.1-30.04,2.46
		c-8-1.27-16.77-2.59-23.61,3.18c-5.95,5.02-11.42,10.87-15.96,17.17c-2.28,3.16-3.54,8.5-2.67,12.24
		c2.83,12.1,6.73,23.96,10.51,35.82c1.52,4.78,5.02,7.03,10.34,7.86c6.71,1.05,13.43,2.99,19.69,5.62
		c8.52,3.58,16.74,7.93,24.83,12.44C410.89,426.93,418.23,429.26,426.69,428.25z M180.39,329.74c-12.52-0.17-25.11-1.01-37.24,3.15
		c-16.65,5.71-27.9,18.44-26.03,36.43c1.12,10.7,4.18,21.46,8.13,31.51c3.44,8.76,10.45,16.33,20.26,17.34
		c12.08,1.25,24.41,0.27,36.62,0.01c1.4-0.03,2.74-1.67,4.16-2.45c10.44-5.71,20.91-10.84,33.29-11.5
		c6.56-0.35,12.14-4.11,17.14-9.15c13.75-13.86,10.09-30.93,9.84-47.43c-0.02-1.41-1.43-3.05-2.6-4.15
		c-9.4-8.74-19.7-15.75-33.26-15.31C200.59,328.51,190.49,329.2,180.39,329.74z M334.64,442.78c-6.45-12.75-12.14-24.37-18.21-35.79
		c-2.63-4.95-5.53-9.97-9.26-14.09c-7.81-8.64-19.14-8.07-26.28,0.9c-7.25,9.1-14.76,18.04-21.28,27.65
		c-6.46,9.52-12.7,19.38-17.41,29.83c-5.13,11.37-5.57,23.07,4.37,33.09c4.65,4.69,10.09,7.05,16.4,8.52
		c4.86,1.13,9.02,1.92,12.28-2.91c0.36-0.53,1.9-0.55,2.8-0.37c8.09,1.67,16.85,2,24.05,5.51c10.5,5.12,18.33,1.42,26.63-3.93
		c6.95-4.47,9.53-10.61,8.38-18.77c-0.71-5.09-0.65-10.28-1.05-17.65c7.37,7.58,8.58,15.52,8.44,22.65
		c-0.13,6.97-3.6,13.87-5.91,21.86c3.27-2.38,5.81-3.94,8.02-5.88c12.71-11.14,14.51-21.33,5.79-35.99
		c-4.31-7.24-9.51-13.96-14.7-21.48C336.62,438.33,335.99,439.74,334.64,442.78z M202.85,420.39c-8.74,1.08-13.14,6.68-15.87,13.79
		c-2.58,6.71-5.68,11.92-13.9,13.18c-5.73,0.88-11.1,4.03-16.64,6.16c4.34,0.69,8.27,0.43,12.05-0.48
		c14.68-3.52,26.35-11.62,35.45-23.65C206.4,426.14,206.58,423.5,202.85,420.39z M331.56,410.91c-0.1-10.24-4.68-17.52-14.42-23.21
		C315.72,400.47,324.46,405.19,331.56,410.91z M137.45,435.7c7.95,1.88,15.92,3.86,25.7,2.61
		C153.99,431.76,145.92,431.54,137.45,435.7z M369.1,563.59c-0.8-6.49-0.8-6.49-7.01-3.9C364.23,560.88,366.03,561.88,369.1,563.59z
		 M404.63,523.35c0.18,0,0.36,0,0.54,0c0-2.53,0-5.06,0-7.59c-0.18,0-0.36,0-0.54,0C404.63,518.28,404.63,520.81,404.63,523.35z
		 M313.83,379.66c-0.46,0.11-0.92,0.21-1.39,0.32c0.16,1.35,0.33,2.71,0.49,4.06c0.76-0.16,1.52-0.31,2.28-0.47
		C314.75,382.27,314.29,380.97,313.83,379.66z"/>
	<path d="M246.08,609.8c12.63-5.06,15.12,5.16,20.39,13.83c1.06-3.97,1.65-5.98,2.13-8.01c1.72-7.27,6.08-9.22,12.17-5.31
		c2.7,1.73,5.25,3.67,8.03,5.63c3.26-2.7,6.56-5.43,10.34-8.56c4.11,3.11,8.15,6.19,12.72,9.65c0.99-2.74,1.84-5.09,2.99-8.27
		c9.89,0,20.04,0,30.8,0c-1.77,8.53-2.12,16.48-7.19,23.8c-2.56,3.7-1.46,9.94-1.96,15.04c-0.3,3.02,0.15,5.68-1.43,9.03
		c-2.39,5.05,1.74,9.44,6.33,12.55c1.15-0.76,2.55-1.19,2.64-1.81c1.18-8.26,5.36-16.03,3.68-24.79
		c-2.19-11.42,6.69-30.69,16.6-36.74c4.16,9.26,2.49,15.09-7.06,24.25c2.45,10.81,1.43,21.42-2.69,31.81
		c-2.61,6.58,0.18,12.03,4.87,19.17c5.43-15.51,10.82-29.24,11.85-44.48c0.89,0.09,1.79,0.18,2.68,0.28
		c2.28,4.76,4.56,9.52,7.49,15.64c2.75-3.06,5.38-4.67,5.85-6.77c1.44-6.43,2.49-13.03,2.78-19.61c0.14-3.27-1.74-6.56-6.42-4.98
		c-1.04,0.35-2.15,0.47-3.32,0.25c8.62-3.23,12.73-1.61,15.39,6.44c1.43,4.35,3.56,7.49,8.96,9.74c0.49-3.19,1.36-5.66,1.13-8.03
		c-0.75-7.91,3.37-12.23,10.05-15.16c3.62-1.59,7.17-3.44,10.49-5.57c5.23-3.35,8.11-8,9.17-14.47c2.41-14.67,5.24-29.31,8.78-43.75
		c2.09-8.51,5.86-16.62,8.91-24.89c1.7-4.62,4.76-7.99,9.41-9.72c5.76-2.13,9.83-7.35,16.37-8.4c2.08-0.33,3.63-4.02,6.07-5.72
		c-0.34,9.57-4.33,17.41-13.14,20.99c-8.56,3.48-13.18,9.21-15.86,17.65c-1.78,5.62-4.78,10.84-7.06,16.31
		c-3.64,8.72-2.92,17.84-3.32,27.06c-0.47,10.67,1.79,20.72,2.62,31.06c0.25,3.08-1.69,6.41-1.16,9.36
		c0.37,2.09,3.58,2.74,2.66,6.68c-1.88,8.09-5.96,14.92-11.12,20.73c-5.41,6.09-12.46,10.72-18.76,16.03
		c-1.75,1.48-3.51,2.98-5.03,4.69c-5.01,5.63-9.05,12.56-15.02,16.81c-11.54,8.21-24.12,14.95-36.29,22.27
		c-2.27,1.37-4.86,2.3-6.93,3.91c-4.62,3.6-9.22,4.84-14.69,1.79c-1.62-0.9-3.96-1.21-5.82-0.89c-20.49,3.53-41.45-1.91-61.54,4.38
		c-0.93-3.28-1.32-7.66-4.52-5.15c-8.6,6.76-17.88,1.53-26.73,2.52c-4.35,0.49-8.99-1.51-13.49-2.43
		c-15.14-3.1-24.32-13.29-31.11-26.26c-1.38-2.64-2.19-5.59-3.66-8.17c-2.45-4.31-5.45-7.49-11.17-8.02
		c-11.21-1.04-18.4-7.68-22.06-18.24c-3.28-9.48-6.6-18.94-10.04-28.82c-6.02,1.14-4.57,5.91-4.59,10.57
		c-1.72,0.38-4.32,1.69-5.11,0.98c-1.85-1.65-4.45-4.9-3.88-6.39c1.89-4.88-0.71-9.7,1.75-15.09c2.51-5.52,1.57-13.8-0.48-20
		c-6.46-19.51-8-26.09-7.35-48.94c6.76,0.99,6.71,6.99,7.4,11.14c3.06,18.51,10.98,34.3,24.92,46.83c3.5,3.14,8.03,5.13,12.87,8.13
		c1.23,7.8,4.7,16.38,6.8,27.8c4.25-4.44,6.79-6.87,9.08-9.52c4.33-5.02,9.46-6.05,15.02-2.27c6.26,4.26,12.25,8.91,18.68,13.63
		c2.13-12.19-6.15-22.03-6.24-33.24c8.74-1.42,13.05,2.72,14.99,9.92c1.88,6.99,6.28,10.48,14.69,10.44
		C248.97,623.42,247.57,616.82,246.08,609.8z M312.8,637.03c-4.22,11.83-6.41,22.71,0.84,33.93c8.93-10.26,6.79-21.64,7.33-33.11
		C318.16,637.56,315.93,637.34,312.8,637.03z M262.84,639.04c0.2,7.44,0.4,14.02,6.04,21.29c2.34-9.31,4.23-16.86,6.54-26.05
		C270.61,636.11,267.08,637.44,262.84,639.04z M238.62,643.48c2.66,6.02-8.34,10.93-1,16.76c4.32-6.15,6.43-12.04,4.93-15.07
		C242.08,644.19,239.98,644.02,238.62,643.48z M316.96,624.42c4.81,1.45,4.81,1.45,5.77-3.94
		C320.54,621.98,319,623.03,316.96,624.42z"/>
	<path d="M399.54,570.77c1.74,0.59,3.51,1.19,5.61,1.9c1.88,8.18-3.57,11.67-9.38,15.25C394.04,583.16,394.04,583.16,399.54,570.77z
		"/>
	<path d="M202.39,604.67c4.51,1.79,9.83,2.25,9.01,7.81c-0.51,3.46-3.76,6.52-5.75,9.71C201.1,614.67,201.1,614.67,202.39,604.67z"
		/>
	<path d="M131.94,543.59c-0.13-9.09-5.7-16.34-1.3-24.3c1.25,7.15,2.52,14.29,3.68,21.45C134.39,541.14,133.56,541.69,131.94,543.59
		z"/>
	<path d="M180.49,608.17c2.09-2.37,3.11-3.53,4.83-5.48c2.79,2.57,5.3,4.89,9.36,8.63C188.26,612.02,185.32,609.46,180.49,608.17z"
		/>
	<path d="M171.15,582.06c-0.62-2.67-1.23-5.34-1.85-8.01c0.72-0.18,1.44-0.37,2.16-0.55c0.79,2.63,1.57,5.25,2.36,7.88
		C172.93,581.6,172.04,581.83,171.15,582.06z"/>
	<path class="st0" d="M426.69,428.25c-8.45,1.02-15.8-1.31-22.95-5.3c-8.08-4.5-16.31-8.85-24.83-12.44
		c-6.26-2.64-12.99-4.57-19.69-5.62c-5.32-0.83-8.81-3.08-10.34-7.86c-3.78-11.86-7.68-23.72-10.51-35.82
		c-0.88-3.74,0.38-9.08,2.67-12.24c4.55-6.3,10.02-12.15,15.96-17.17c6.84-5.77,15.61-4.46,23.61-3.18
		c10.34,1.65,20.18,2.18,30.04-2.46c6.77-3.19,13.13,0.52,18.44,4.15c13.77,9.43,24.65,22.01,34.24,35.47
		c6.16,8.64,4.47,18.38-0.08,27.44c-1.92,3.83-4.62,7.27-6.97,10.88c-1.44,2.22-3.7,4.26-4.21,6.67
		C449.08,424.93,439.82,429.54,426.69,428.25z"/>
	<path class="st0" d="M180.39,329.74c10.1-0.53,20.2-1.23,30.31-1.56c13.57-0.44,23.87,6.57,33.26,15.31
		c1.17,1.09,2.58,2.74,2.6,4.15c0.25,16.49,3.91,33.57-9.84,47.43c-5,5.04-10.58,8.8-17.14,9.15c-12.38,0.66-22.85,5.79-33.29,11.5
		c-1.43,0.78-2.76,2.42-4.16,2.45c-12.22,0.26-24.54,1.24-36.62-0.01c-9.81-1.01-16.82-8.59-20.26-17.34
		c-3.95-10.04-7.02-20.81-8.13-31.51c-1.88-17.98,9.38-30.72,26.03-36.43C155.28,328.72,167.87,329.57,180.39,329.74z"/>
	<path class="st0" d="M334.64,442.78c1.35-3.04,1.98-4.45,3.05-6.86c5.19,7.53,10.39,14.24,14.7,21.48
		c8.73,14.66,6.93,24.85-5.79,35.99c-2.21,1.94-4.75,3.5-8.02,5.88c2.31-7.98,5.77-14.89,5.91-21.86
		c0.14-7.13-1.07-15.06-8.44-22.65c0.41,7.37,0.34,12.57,1.05,17.65c1.14,8.16-1.43,14.3-8.38,18.77
		c-8.3,5.34-16.13,9.04-26.63,3.93c-7.21-3.51-15.97-3.84-24.05-5.51c-0.9-0.19-2.44-0.16-2.8,0.37c-3.27,4.84-7.43,4.04-12.28,2.91
		c-6.31-1.46-11.74-3.82-16.4-8.52c-9.94-10.03-9.5-21.73-4.37-33.09c4.71-10.44,10.96-20.31,17.41-29.83
		c6.52-9.61,14.03-18.55,21.28-27.65c7.14-8.97,18.47-9.54,26.28-0.9c3.73,4.13,6.63,9.14,9.26,14.09
		C322.5,418.4,328.18,430.03,334.64,442.78z"/>
	<path class="st0" d="M202.85,420.39c3.72,3.11,3.55,5.74,1.08,9.01c-9.1,12.03-20.77,20.12-35.45,23.65
		c-3.78,0.91-7.71,1.17-12.05,0.48c5.53-2.13,10.91-5.28,16.64-6.16c8.22-1.26,11.32-6.47,13.9-13.18
		C189.72,427.08,194.12,421.47,202.85,420.39z"/>
	<path class="st0" d="M459.81,438.61c-2.41,2.03-4.59,5.4-7.26,5.84c-10.64,1.76-21.49,3.2-31.59-2.61
		c-0.79-0.45-1.48-1.09-3.06-2.27c1.99-0.39,3.34-1.13,4.27-0.77c9.53,3.65,18.71,0.38,28-1.12c3.35-0.54,7.03-3.19,9.85,1.15
		L459.81,438.61z"/>
	<path class="st0" d="M331.56,410.91c-7.1-5.71-15.85-10.44-14.42-23.21C326.89,393.38,331.47,400.66,331.56,410.91z"/>
	<path class="st0" d="M137.45,435.7c8.47-4.15,16.54-3.94,25.7,2.61C153.37,439.56,145.4,437.58,137.45,435.7z"/>
	<path class="st0" d="M369.1,563.59c-3.07-1.71-4.88-2.71-7.01-3.9C368.31,557.1,368.31,557.1,369.1,563.59z"/>
	<ellipse class="st0" cx="404.89" cy="519.55" rx="0.38" ry="5.37"/>
	<path class="st0" d="M313.83,379.66c0.46,1.3,0.92,2.61,1.38,3.91c-0.76,0.16-1.52,0.31-2.28,0.47c-0.16-1.35-0.33-2.71-0.49-4.06
		C312.9,379.88,313.37,379.77,313.83,379.66z"/>
	<path class="st0" d="M460.01,438.84c1.1-1.92,2.2-3.85,3.31-5.77c0.4,4.03,0.4,4.03-3.51,5.55
		C459.81,438.61,460.01,438.84,460.01,438.84z"/>
	<path class="st0" d="M312.8,637.03c3.13,0.31,5.36,0.53,8.17,0.81c-0.54,11.47,1.6,22.86-7.33,33.11
		C306.39,659.74,308.58,648.86,312.8,637.03z"/>
	<path class="st0" d="M262.84,639.04c4.24-1.6,7.77-2.94,12.59-4.76c-2.31,9.19-4.2,16.74-6.54,26.05
		C263.24,653.06,263.04,646.48,262.84,639.04z"/>
	<path class="st0" d="M238.62,643.48c1.36,0.54,3.45,0.72,3.93,1.69c1.5,3.04-0.61,8.93-4.93,15.07
		C230.29,654.41,241.28,649.49,238.62,643.48z"/>
	<path class="st0" d="M316.96,624.42c2.04-1.39,3.58-2.44,5.77-3.94C321.76,625.88,321.76,625.88,316.96,624.42z"/>
</g>
</svg>
