<?xml version="1.0" encoding="utf-8"?>
<!-- Generator: Adobe Illustrator 24.1.3, SVG Export Plug-In . SVG Version: 6.00 Build 0)  -->
<svg version="1.1" id="Layer_1" xmlns="http://www.w3.org/2000/svg" xmlns:xlink="http://www.w3.org/1999/xlink" x="0px" y="0px"
	 viewBox="0 0 512 512" style="enable-background:new 0 0 512 512;" xml:space="preserve">
<style type="text/css">
	.st0{fill:#FFFFFF;}
</style>
<g transform="translate(0,0)">
	<path class="st0" d="M268.8,241.1c24.7-0.1,24.7-1.9,24.7-30v-97h60l-90-90l-90,90h60v97c0,30,0,30,30,30
		C265.4,241.1,267.1,241.1,268.8,241.1z"/>
</g>
<g>
	<polygon class="st0" points="257.5,496 230.8,412.9 246.8,407.7 258.1,443 289.5,352.7 305.4,358.2 257.6,496 	"/>
	<polygon class="st0" points="410,391.9 319.2,388.7 319.7,371.9 357.9,373.2 279.9,313.5 290.1,300.2 410,391.9 	"/>
	<polygon class="st0" points="255.2,388.3 109.5,380.3 182.9,331.2 192.2,345.2 160.7,366.3 256.1,371.5 255.2,388.3 	"/>
	<polygon class="st0" points="327.3,298.6 311.6,292.7 325.6,255.3 247.5,308.2 238.1,294.2 359.8,211.8 327.3,298.6 	"/>
	<polygon class="st0" points="229,342.2 212.9,346.9 171.6,206.4 243.5,262.7 233.1,275.9 202.5,251.9 229,342.2 	"/>
</g>
</svg>
